<?xml version="1.0" encoding="iso-8859-1"?>
<!-- Generator: Adobe Illustrator 19.0.0, SVG Export Plug-In . SVG Version: 6.00 Build 0)  -->
<svg version="1.1" id="Capa_1" xmlns="http://www.w3.org/2000/svg" xmlns:xlink="http://www.w3.org/1999/xlink" x="0px" y="0px"
	 viewBox="0 0 512 512" style="enable-background:new 0 0 512 512;" xml:space="preserve">
<circle style="fill:#FFE13C;" cx="256" cy="256" r="256"/>
<path style="fill:#FFBA31;" d="M510.041,224.253L389.085,103.297l-102.284,106.39l23.399,23.399l-0.535,0.88L168.773,93.074
	l0.809,26.809l-26.809-26.809l89.536,298.444l27.822,27.697L242.5,511.646c4.471,0.232,8.971,0.354,13.5,0.354
	c141.385,0,256-114.615,256-256C512,245.249,511.328,234.656,510.041,224.253z"/>
<path style="fill:#5900BF;" d="M242.5,511.646c4.471,0.232,8.971,0.354,13.5,0.354c4.529,0,9.029-0.122,13.5-0.354V373h-27V511.646z
	"/>
<path style="fill:#3B0080;" d="M255.571,373v138.994c0.143,0,0.285,0.006,0.429,0.006c4.529,0,9.029-0.122,13.5-0.354V373H255.571z"
	/>
<polygon style="fill:#EAEAEF;" points="286.801,209.687 339.15,234.659 395.576,118.046 343.227,93.074 "/>
<path style="fill:#5900BF;" d="M242,359.783l40.672,19.402l114.76-240.574c6.885-14.434,0.766-31.717-13.668-38.602l-14.537-6.935
	L242,359.783z"/>
<polygon style="fill:#FFFFFF;" points="225.199,209.687 172.85,234.659 116.424,118.046 168.773,93.074 "/>
<path style="fill:#7600FF;" d="M270,359.783l-40.672,19.402l-114.76-240.574c-6.885-14.434-0.766-31.717,13.668-38.602l14.537-6.935
	L270,359.783z"/>
<circle style="fill:#8D6EFF;" cx="256" cy="362.67" r="37.33"/>
<path style="fill:#7600FF;" d="M256,325.33c-0.144,0-0.285,0.009-0.429,0.011v74.647c0.144,0.002,0.285,0.011,0.429,0.011
	c20.619,0,37.334-16.715,37.334-37.334S276.619,325.33,256,325.33z"/>
<g>
</g>
<g>
</g>
<g>
</g>
<g>
</g>
<g>
</g>
<g>
</g>
<g>
</g>
<g>
</g>
<g>
</g>
<g>
</g>
<g>
</g>
<g>
</g>
<g>
</g>
<g>
</g>
<g>
</g>
</svg>
