<?xml version="1.0" encoding="iso-8859-1"?>
<!-- Generator: Adobe Illustrator 19.0.0, SVG Export Plug-In . SVG Version: 6.00 Build 0)  -->
<svg version="1.1" id="Capa_1" xmlns="http://www.w3.org/2000/svg" xmlns:xlink="http://www.w3.org/1999/xlink" x="0px" y="0px"
	 viewBox="0 0 512 512" style="enable-background:new 0 0 512 512;" xml:space="preserve">
<circle style="fill:#FFE13C;" cx="256" cy="256" r="256"/>
<path style="fill:#FFBA31;" d="M512,256c0-13.159-0.996-26.086-2.911-38.711l-73.033-73.033L149.462,425.705l85.423,85.423
	C241.849,511.696,248.889,512,256,512C397.385,512,512,397.385,512,256z"/>
<polygon style="fill:#FF0098;" points="325.292,255.02 264.052,193.779 339.106,118.725 436.055,144.256 "/>
<polygon style="fill:#DF008B;" points="436.055,144.256 386.752,131.272 294.148,223.876 325.292,255.02 "/>
<rect x="227.593" y="212.311" transform="matrix(-0.7071 -0.7071 0.7071 -0.7071 315.8726 603.2197)" style="fill:#FFFFFF;" width="110.549" height="47.759"/>
<rect x="274.14" y="231.611" transform="matrix(0.7071 0.7071 -0.7071 0.7071 269.1563 -138.8205)" style="fill:#EFEFEF;" width="56.019" height="47.759"/>
<rect x="135.344" y="210.729" transform="matrix(-0.7071 -0.7071 0.7071 -0.7071 113.0206 687.2705)" style="fill:#7600FF;" width="127.009" height="218.998"/>
<rect x="188.915" y="232.926" transform="matrix(0.7071 0.7071 -0.7071 0.7071 306.8703 -56.0014)" style="fill:#5900BF;" width="64.239" height="218.998"/>
<g>
</g>
<g>
</g>
<g>
</g>
<g>
</g>
<g>
</g>
<g>
</g>
<g>
</g>
<g>
</g>
<g>
</g>
<g>
</g>
<g>
</g>
<g>
</g>
<g>
</g>
<g>
</g>
<g>
</g>
</svg>
