<?xml version="1.0" encoding="iso-8859-1"?>
<!-- Generator: Adobe Illustrator 19.0.0, SVG Export Plug-In . SVG Version: 6.00 Build 0)  -->
<svg version="1.1" id="Capa_1" xmlns="http://www.w3.org/2000/svg" xmlns:xlink="http://www.w3.org/1999/xlink" x="0px" y="0px"
	 viewBox="0 0 512 512" style="enable-background:new 0 0 512 512;" xml:space="preserve">
<circle style="fill:#7600FF;" cx="256" cy="256" r="256"/>
<path style="fill:#5900BF;" d="M256,512c141.385,0,256-114.615,256-256c0-2.572-0.049-5.132-0.125-7.685l-164.8-164.8
	L192.991,388.772l73.738,73.738L242.5,511.646C246.971,511.878,251.471,512,256,512z"/>
<path style="fill:#D5D3E0;" d="M242.5,511.646c4.471,0.232,8.971,0.354,13.5,0.354c4.529,0,9.029-0.122,13.5-0.354V373h-27V511.646z
	"/>
<path style="fill:#C7C6CE;" d="M255.571,373v138.994c0.143,0,0.285,0.006,0.429,0.006c4.529,0,9.029-0.122,13.5-0.354V373H255.571z"
	/>
<path style="fill:#FFFFFF;" d="M361.315,115.622h-210.63v86.752c0,19,4.032,37.784,11.829,55.111l10.368,23.039
	c7.797,17.327,11.829,36.111,11.829,55.111v27.883c0,23.564,19.102,42.666,42.666,42.666h57.248
	c23.564,0,42.666-19.102,42.666-42.666v-27.883c0-19,4.032-37.784,11.829-55.111l10.368-23.039
	c7.797-17.327,11.829-36.111,11.829-55.111v-86.752H361.315z"/>
<path style="fill:#E4F2F6;" d="M255.571,115.622v290.562h29.053c23.564,0,42.666-19.102,42.666-42.666v-27.883
	c0-19,4.032-37.784,11.829-55.111l10.367-23.039c7.797-17.327,11.829-36.111,11.829-55.111v-86.752L255.571,115.622L255.571,115.622
	z"/>
<path style="fill:#FF0098;" d="M198.212,115.622V242c0,31.916,25.873,57.788,57.788,57.788l0,0
	c31.916,0,57.788-25.873,57.788-57.788V115.622H198.212z"/>
<path style="fill:#DF008B;" d="M255.571,115.622v184.156c0.144,0.001,0.285,0.011,0.429,0.011c31.916,0,57.788-25.873,57.788-57.788
	V115.622H255.571z"/>
<path style="fill:#D5D3E0;" d="M361.315,118.862h-210.63v-8.371c0-18.046,14.629-32.675,32.675-32.675h145.281
	c18.046,0,32.675,14.629,32.675,32.675L361.315,118.862L361.315,118.862z"/>
<path style="fill:#C3C2CC;" d="M361.315,110.491c0-18.046-14.629-32.675-32.675-32.675h-73.069v41.046h105.744V110.491z"/>
<rect x="192.99" y="77.82" style="fill:#FFFFFF;" width="126.02" height="29.16"/>
<rect x="255.57" y="77.82" style="fill:#EFEDED;" width="63.44" height="29.16"/>
<rect x="247.63" y="77.82" style="fill:#AD9B95;" width="16.742" height="29.16"/>
<rect x="255.57" y="77.82" style="fill:#9B8A86;" width="8.8" height="29.16"/>
<rect x="209.69" y="77.82" style="fill:#AD9B95;" width="16.742" height="29.16"/>
<rect x="285.57" y="77.82" style="fill:#9B8A86;" width="16.742" height="29.16"/>
<rect x="150.69" y="118.86" style="fill:#DF008B;" width="210.63" height="22.683"/>
<rect x="255.57" y="118.86" style="fill:#C90085;" width="105.74" height="22.683"/>
<path style="fill:#FFE13C;" d="M256,256.042L256,256.042c-9.396,0-17.012-7.617-17.012-17.012v-54.548
	c0-9.396,7.617-17.012,17.012-17.012l0,0c9.396,0,17.012,7.617,17.012,17.012v54.548C273.012,248.425,265.396,256.042,256,256.042z"
	/>
<path style="fill:#FFBA31;" d="M256,167.469L256,167.469c-0.145,0-0.285,0.018-0.429,0.021v88.53
	c0.144,0.003,0.284,0.021,0.429,0.021l0,0c9.396,0,17.012-7.617,17.012-17.012v-54.548C273.012,175.086,265.396,167.469,256,167.469
	z"/>
<g>
</g>
<g>
</g>
<g>
</g>
<g>
</g>
<g>
</g>
<g>
</g>
<g>
</g>
<g>
</g>
<g>
</g>
<g>
</g>
<g>
</g>
<g>
</g>
<g>
</g>
<g>
</g>
<g>
</g>
</svg>
