<?xml version="1.0" encoding="iso-8859-1"?>
<!-- Generator: Adobe Illustrator 19.0.0, SVG Export Plug-In . SVG Version: 6.00 Build 0)  -->
<svg version="1.1" id="Capa_1" xmlns="http://www.w3.org/2000/svg" xmlns:xlink="http://www.w3.org/1999/xlink" x="0px" y="0px"
	 viewBox="0 0 512 512" style="enable-background:new 0 0 512 512;" xml:space="preserve">
<circle style="fill:#FF0098;" cx="256" cy="256" r="256"/>
<path style="fill:#DF008B;" d="M511.773,266.386L340.344,94.957l-117.27,186.029L83.754,141.667l17.374,72.45L7.689,318.458
	l185.853,185.854C213.534,509.324,234.453,512,256,512C393.904,512,506.321,402.953,511.773,266.386z"/>
<path style="fill:#FFBA31;" d="M136.768,482.576C172.379,501.354,212.943,512,256,512s83.621-10.646,119.232-29.424V166.281H136.768
	V482.576z"/>
<path style="fill:#FFA733;" d="M255.571,166.281v345.715c0.143,0,0.285,0.003,0.429,0.003c43.057,0,83.621-10.646,119.232-29.424
	V166.281H255.571z"/>
<path style="fill:#7600FF;" d="M438.246,430.23c0-28.752-20.225-63.537-48.392-69.303l-74.927-15.339
	c-9.133-1.87-15.691-9.906-15.691-19.229V272.87h-86.471v53.489c0,9.323-6.558,17.359-15.691,19.229l-74.927,15.339
	c-28.168,5.767-48.392,40.552-48.392,69.303v5.534c2.68,2.717,5.423,5.372,8.221,7.968c3.261,2.855,6.58,5.787,9.957,8.772
	C136.362,489.639,193.566,512,256,512s119.638-22.361,164.068-59.496c3.376-2.986,6.696-5.917,9.957-8.772
	c2.799-2.596,5.541-5.251,8.221-7.968V430.23z"/>
<path style="fill:#5900BF;" d="M389.853,360.927l-74.927-15.339c-9.133-1.87-15.691-9.906-15.691-19.229V272.87h-43.664v239.125
	c0.143,0,0.285,0.005,0.429,0.005c62.434,0,119.638-22.361,164.068-59.496c3.376-2.986,6.696-5.917,9.957-8.772
	c2.799-2.596,5.541-5.251,8.221-7.968v-5.534C438.246,401.478,418.021,366.693,389.853,360.927z"/>
<path style="fill:#FFFFFF;" d="M256,326.504L256,326.504c-53.802,0-97.417-43.615-97.417-97.416v-43.783
	c0-53.802,43.615-97.416,97.416-97.416l0,0c53.802,0,97.416,43.615,97.416,97.416v43.783
	C353.417,282.889,309.802,326.504,256,326.504z"/>
<path style="fill:#E4F2F6;" d="M256,87.888L256,87.888c-0.143,0-0.286,0.005-0.429,0.005v238.605
	c0.143,0.001,0.285,0.006,0.428,0.006l0,0c53.802,0,97.416-43.615,97.416-97.417v-43.783C353.417,131.503,309.802,87.888,256,87.888
	z"/>
<path style="fill:#FFBA31;" d="M138.631,158.121L152,215c-24.968,79.476-96.249,99.405-144.311,103.458
	C2.676,298.466,0,277.546,0,256c0-4.864,0.149-9.693,0.417-14.49C124.791,244.411,138.631,158.121,138.631,158.121z"/>
<path style="fill:#FFFFFF;" d="M122.588,223.167c0,21.447-17.386,38.833-38.833,38.833s-38.833-17.386-38.833-38.833
	s38.833-81.5,38.833-81.5S122.588,201.72,122.588,223.167z"/>
<path style="fill:#D5ECF2;" d="M83.754,141.667c0,0,38.833,60.053,38.833,81.5S105.202,262,83.754,262V141.667z"/>
<path style="fill:#FFE13C;" d="M256,60L256,60c-65.85,0-119.232,53.382-119.232,119.232v1.329v52.258v249.756
	c15.191,8.011,31.28,14.544,48.085,19.396V187.54c29.918-21.357,29.617-39.599,29.617-39.599s22.775,58.803,123.251,84.257v266.477
	c13.005-4.378,25.535-9.783,37.511-16.099V179.232C375.232,113.382,321.85,60,256,60z"/>
<path style="fill:#FFBA31;" d="M256,60L256,60c-0.143,0-0.286,0.005-0.429,0.005v135.087c18.671,13.823,45.131,27.727,82.149,37.105
	v266.477c13.005-4.378,25.535-9.783,37.511-16.099V179.232C375.232,113.382,321.85,60,256,60z"/>
<g>
</g>
<g>
</g>
<g>
</g>
<g>
</g>
<g>
</g>
<g>
</g>
<g>
</g>
<g>
</g>
<g>
</g>
<g>
</g>
<g>
</g>
<g>
</g>
<g>
</g>
<g>
</g>
<g>
</g>
</svg>
