<?xml version="1.0" encoding="iso-8859-1"?>
<!-- Generator: Adobe Illustrator 19.0.0, SVG Export Plug-In . SVG Version: 6.00 Build 0)  -->
<svg version="1.1" id="Capa_1" xmlns="http://www.w3.org/2000/svg" xmlns:xlink="http://www.w3.org/1999/xlink" x="0px" y="0px"
	 viewBox="0 0 512 512" style="enable-background:new 0 0 512 512;" xml:space="preserve">
<circle style="fill:#FF0098;" cx="256" cy="256" r="256"/>
<path style="fill:#DF008B;" d="M323.328,503.034C432.046,473.472,512,374.082,512,256c0-15.08-1.315-29.852-3.816-44.217L356.4,60
	l-8.719,31.601l-56.16-56.159L100.399,280.106L323.328,503.034z"/>
<path style="fill:#7600FF;" d="M438.246,430.23c0-28.752-20.225-63.537-48.392-69.303l-74.927-15.339
	c-9.133-1.87-15.691-9.906-15.691-19.229V272.87h-86.471v53.489c0,9.323-6.558,17.359-15.691,19.229l-74.927,15.339
	c-28.168,5.767-48.392,40.552-48.392,69.303v5.534c2.68,2.717,5.423,5.372,8.221,7.968c3.261,2.855,6.58,5.787,9.957,8.772
	C136.362,489.639,193.566,512,256,512s119.638-22.361,164.068-59.496c3.376-2.986,6.696-5.917,9.957-8.772
	c2.799-2.596,5.541-5.251,8.221-7.968V430.23z"/>
<path style="fill:#5900BF;" d="M389.853,360.927l-74.927-15.339c-9.133-1.87-15.691-9.906-15.691-19.229V272.87h-43.664v239.125
	c0.143,0,0.285,0.005,0.429,0.005c62.434,0,119.638-22.361,164.068-59.496c3.376-2.986,6.696-5.917,9.957-8.772
	c2.799-2.596,5.541-5.251,8.221-7.968v-5.534C438.246,401.478,418.021,366.693,389.853,360.927z"/>
<path style="fill:#FFFFFF;" d="M256,326.504L256,326.504c-53.802,0-97.417-43.615-97.417-97.416v-43.783
	c0-53.802,43.615-97.416,97.416-97.416l0,0c53.802,0,97.416,43.615,97.416,97.416v43.783
	C353.417,282.889,309.802,326.504,256,326.504z"/>
<path style="fill:#E4F2F6;" d="M256,87.888L256,87.888c-0.143,0-0.286,0.005-0.429,0.005v238.605
	c0.143,0.001,0.285,0.006,0.428,0.006l0,0c53.802,0,97.416-43.615,97.416-97.417v-43.783C353.417,131.503,309.802,87.888,256,87.888
	z"/>
<rect x="155.5" y="106.37" style="fill:#FFBA31;" width="197.92" height="101.68"/>
<rect x="255.57" y="106.37" style="fill:#FFA733;" width="97.84" height="101.68"/>
<g>
	<circle style="fill:#5900BF;" cx="136.35" cy="247.31" r="37.686"/>
	<circle style="fill:#5900BF;" cx="136.35" cy="163.4" r="37.686"/>
	<circle style="fill:#5900BF;" cx="186.38" cy="97.69" r="37.686"/>
</g>
<g>
	<circle style="fill:#3B0080;" cx="375.65" cy="247.31" r="37.686"/>
	<circle style="fill:#3B0080;" cx="375.65" cy="163.4" r="37.686"/>
	<circle style="fill:#3B0080;" cx="325.62" cy="97.69" r="37.686"/>
</g>
<circle style="fill:#5900BF;" cx="256" cy="68.69" r="37.686"/>
<path style="fill:#3B0080;" d="M256,31c-0.144,0-0.285,0.009-0.429,0.011v75.35c0.143,0.002,0.285,0.011,0.429,0.011
	c20.813,0,37.686-16.873,37.686-37.686S276.813,31,256,31z"/>
<path style="fill:#FFBA31;" d="M400.303,205.359c14.366-8.475,24.03-24.104,24.03-41.956c0-26.845-21.84-48.686-48.686-48.686
	c-1.522,0-3.025,0.08-4.512,0.217c2.04-5.365,3.167-11.177,3.167-17.249C374.303,70.84,352.462,49,325.616,49
	c-8.301,0-16.121,2.093-22.967,5.772C296.647,34.687,278.011,20,256,20s-40.647,14.687-46.649,34.772
	C202.505,51.093,194.685,49,186.383,49c-26.845,0-48.686,21.84-48.686,48.686c0,6.072,1.127,11.884,3.167,17.249
	c-1.487-0.137-2.99-0.217-4.512-0.217c-26.846,0-48.686,21.84-48.686,48.686c0,17.852,9.664,33.481,24.03,41.956
	c-14.366,8.475-24.03,24.104-24.03,41.956c0,26.845,21.84,48.686,48.686,48.686c26.845,0,48.686-21.84,48.686-48.686
	c0-17.852-9.664-33.481-24.03-41.956c14.366-8.475,24.03-24.104,24.03-41.956c0-6.072-1.127-11.884-3.167-17.249
	c1.487,0.137,2.99,0.217,4.512,0.217c22.011,0,40.647-14.687,46.649-34.772c6.846,3.679,14.666,5.772,22.968,5.772
	s16.121-2.093,22.967-5.772c6.002,20.085,24.638,34.772,46.649,34.772c1.522,0,3.026-0.08,4.513-0.217
	c-2.04,5.365-3.167,11.177-3.167,17.249c0,17.852,9.664,33.481,24.03,41.956c-14.366,8.475-24.03,24.104-24.03,41.956
	c0,26.845,21.84,48.686,48.686,48.686s48.686-21.84,48.686-48.686C424.333,229.462,414.669,213.833,400.303,205.359z M136.353,274
	c-14.715,0-26.686-11.971-26.686-26.686s11.971-26.686,26.686-26.686c14.714,0,26.686,11.971,26.686,26.686
	C163.039,262.029,151.067,274,136.353,274z M136.353,190.089c-14.715,0-26.686-11.971-26.686-26.686s11.971-26.686,26.686-26.686
	c14.714,0,26.686,11.971,26.686,26.686S151.067,190.089,136.353,190.089z M186.383,124.371c-14.714,0-26.686-11.971-26.686-26.686
	S171.669,71,186.383,71s26.686,11.971,26.686,26.686S201.098,124.371,186.383,124.371z M256,95.371
	c-14.714,0-26.686-11.971-26.686-26.686S241.286,42,256,42c14.715,0,26.686,11.971,26.686,26.686S270.715,95.371,256,95.371z
	 M298.931,97.686c0-14.714,11.971-26.686,26.686-26.686s26.687,11.971,26.687,26.686s-11.972,26.686-26.687,26.686
	S298.931,112.4,298.931,97.686z M375.647,136.718c14.715,0,26.686,11.971,26.686,26.686s-11.971,26.686-26.686,26.686
	s-26.686-11.971-26.686-26.686S360.933,136.718,375.647,136.718z M375.647,274c-14.715,0-26.686-11.971-26.686-26.686
	s11.971-26.686,26.686-26.686s26.686,11.971,26.686,26.686C402.333,262.029,390.362,274,375.647,274z"/>
<path style="fill:#FFA733;" d="M400.303,205.359c14.366-8.475,24.03-24.104,24.03-41.956c0-26.845-21.84-48.686-48.686-48.686
	c-1.522,0-3.025,0.08-4.512,0.217c2.04-5.365,3.167-11.177,3.167-17.249C374.303,70.84,352.462,49,325.616,49
	c-8.301,0-16.121,2.093-22.967,5.772C296.647,34.687,278.011,20,256,20c-0.144,0-0.285,0.008-0.429,0.009v22.002
	C255.715,42.009,255.856,42,256,42c14.715,0,26.686,11.971,26.686,26.686S270.715,95.371,256,95.371
	c-0.144,0-0.285-0.009-0.429-0.011v21.997c0.144,0.001,0.285,0.013,0.429,0.013c8.301,0,16.121-2.093,22.967-5.772
	c6.002,20.085,24.638,34.772,46.649,34.772c1.522,0,3.026-0.08,4.513-0.217c-2.04,5.365-3.167,11.177-3.167,17.249
	c0,17.852,9.664,33.481,24.03,41.956c-14.366,8.475-24.03,24.104-24.03,41.956c0,26.845,21.84,48.686,48.686,48.686
	s48.686-21.84,48.686-48.686C424.333,229.462,414.669,213.833,400.303,205.359z M325.616,124.371
	c-14.715,0-26.686-11.971-26.686-26.686S310.901,71,325.616,71s26.687,11.971,26.687,26.686S340.331,124.371,325.616,124.371z
	 M348.962,163.403c0-14.714,11.971-26.686,26.686-26.686s26.686,11.971,26.686,26.686s-11.971,26.686-26.686,26.686
	S348.962,178.118,348.962,163.403z M375.647,274c-14.715,0-26.686-11.971-26.686-26.686s11.971-26.686,26.686-26.686
	s26.686,11.971,26.686,26.686C402.333,262.029,390.362,274,375.647,274z"/>
<rect x="308.97" y="151.12" style="fill:#FFBA31;" width="23.05" height="56.935"/>
<rect x="195.78" y="151.12" style="fill:#FFE13C;" width="23.05" height="56.935"/>
<rect x="272.63" y="118.85" style="fill:#FFBA31;" width="23.05" height="89.2"/>
<g>
</g>
<g>
</g>
<g>
</g>
<g>
</g>
<g>
</g>
<g>
</g>
<g>
</g>
<g>
</g>
<g>
</g>
<g>
</g>
<g>
</g>
<g>
</g>
<g>
</g>
<g>
</g>
<g>
</g>
</svg>
