<?xml version="1.0" encoding="iso-8859-1"?>
<!-- Generator: Adobe Illustrator 19.0.0, SVG Export Plug-In . SVG Version: 6.00 Build 0)  -->
<svg version="1.1" id="Capa_1" xmlns="http://www.w3.org/2000/svg" xmlns:xlink="http://www.w3.org/1999/xlink" x="0px" y="0px"
	 viewBox="0 0 512 512" style="enable-background:new 0 0 512 512;" xml:space="preserve">
<circle style="fill:#7600FF;" cx="256" cy="256" r="256"/>
<path style="fill:#5900BF;" d="M372.415,484.058C455.276,441.676,512,355.463,512,256c0-3.821-0.1-7.618-0.266-11.399L310.833,43.7
	L141.695,250l45.956,45.956l-1.282,1.259L372.415,484.058z"/>
<path style="fill:#99FFEB;" d="M320.499,119.75h-129V66.876c0-18.018,14.607-32.625,32.625-32.625h63.75
	c18.018,0,32.625,14.607,32.625,32.625V119.75z"/>
<path style="fill:#00FFCE;" d="M320.5,66.875c0-18.018-14.606-32.625-32.625-32.625h-32.304v85.499h64.928L320.5,66.875z"/>
<path style="fill:#FFE13C;" d="M438.246,430.23c0-28.752-20.225-63.537-48.392-69.303l-74.927-15.339
	c-9.133-1.87-15.691-9.906-15.691-19.229V272.87h-86.471v53.489c0,9.323-6.558,17.359-15.691,19.229l-74.927,15.339
	c-28.168,5.767-48.392,40.552-48.392,69.303v5.534c2.68,2.717,5.423,5.372,8.221,7.968c3.261,2.855,6.58,5.787,9.957,8.772
	C136.362,489.639,193.566,512,256,512s119.638-22.361,164.068-59.496c3.376-2.986,6.696-5.917,9.957-8.772
	c2.799-2.596,5.541-5.251,8.221-7.968V430.23z"/>
<path style="fill:#FFBA31;" d="M389.853,360.927l-74.927-15.339c-9.133-1.87-15.691-9.906-15.691-19.229V272.87h-43.664v239.125
	c0.143,0,0.285,0.005,0.429,0.005c62.434,0,119.638-22.361,164.067-59.496c3.376-2.986,6.696-5.917,9.957-8.772
	c2.799-2.596,5.541-5.251,8.221-7.968v-5.534C438.246,401.478,418.021,366.693,389.853,360.927z"/>
<path style="fill:#FFFFFF;" d="M256,326.504L256,326.504c-53.802,0-97.417-43.615-97.417-97.416v-43.783
	c0-53.802,43.615-97.416,97.416-97.416l0,0c53.802,0,97.416,43.615,97.416,97.416v43.783
	C353.417,282.889,309.802,326.504,256,326.504z"/>
<path style="fill:#E4F2F6;" d="M256,87.888L256,87.888c-0.143,0-0.285,0.005-0.429,0.005v238.605
	c0.143,0.001,0.285,0.006,0.429,0.006l0,0c53.802,0,97.417-43.615,97.417-97.417v-43.783C353.417,131.503,309.802,87.888,256,87.888
	z"/>
<path style="fill:#00FFCE;" d="M347.545,262.471L347.545,262.471L262,150.5l-57.5-70.441h87c45.287,0,82,30.788,82,68.767v92.438
	C373.5,250.507,365.875,262.471,347.545,262.471z"/>
<path style="fill:#05E0B6;" d="M227.776,61.31c-50.663,0-91.734,45.703-91.734,88.19v85.375c0,10.34,8.458,24.685,27.404,24.685
	l130.508-97.401C327,136.333,328.685,102.5,328.685,61.31H227.776z"/>
<path style="fill:#06B795;" d="M255.571,61.31v129.495l38.383-28.646C327,136.333,328.685,102.5,328.685,61.31H255.571z"/>
<g>
	<circle style="fill:#00FFCE;" cx="299.35" cy="85.87" r="11.488"/>
	<circle style="fill:#00FFCE;" cx="299.35" cy="119.75" r="11.488"/>
</g>
<g>
</g>
<g>
</g>
<g>
</g>
<g>
</g>
<g>
</g>
<g>
</g>
<g>
</g>
<g>
</g>
<g>
</g>
<g>
</g>
<g>
</g>
<g>
</g>
<g>
</g>
<g>
</g>
<g>
</g>
</svg>
