<?xml version="1.0" encoding="iso-8859-1"?>
<!-- Generator: Adobe Illustrator 19.0.0, SVG Export Plug-In . SVG Version: 6.00 Build 0)  -->
<svg version="1.1" id="Capa_1" xmlns="http://www.w3.org/2000/svg" xmlns:xlink="http://www.w3.org/1999/xlink" x="0px" y="0px"
	 viewBox="0 0 512 512" style="enable-background:new 0 0 512 512;" xml:space="preserve">
<circle style="fill:#7600FF;" cx="256" cy="256" r="256"/>
<path style="fill:#5900BF;" d="M512,256c0-22.823-3.003-44.942-8.607-66l-55.3-1.011L387,127.895L8.607,190l0,0L200.51,381.903
	L125,425.105l82.236,82.236C223.024,510.386,239.323,512,256,512C397.385,512,512,397.385,512,256z"/>
<path style="fill:#FFE13C;" d="M8.607,190h494.787c-4.454-16.737-10.561-32.797-18.135-48H26.742
	C19.167,157.203,13.06,173.263,8.607,190z"/>
<path style="fill:#FFBA31;" d="M485.258,142H255.571v48h247.822C498.94,173.263,492.833,157.203,485.258,142z"/>
<rect x="125" y="127.89" style="fill:#FFFFFF;" width="262" height="297.21"/>
<rect x="255.57" y="127.89" style="fill:#E4F2F6;" width="131.43" height="297.21"/>
<rect x="125" y="337.08" style="fill:#00FFCE;" width="262" height="64.21"/>
<rect x="255.57" y="337.08" style="fill:#05E0B6;" width="131.43" height="64.21"/>
<g>
</g>
<g>
</g>
<g>
</g>
<g>
</g>
<g>
</g>
<g>
</g>
<g>
</g>
<g>
</g>
<g>
</g>
<g>
</g>
<g>
</g>
<g>
</g>
<g>
</g>
<g>
</g>
<g>
</g>
</svg>
