<?xml version="1.0" encoding="iso-8859-1"?>
<!-- Generator: Adobe Illustrator 19.0.0, SVG Export Plug-In . SVG Version: 6.00 Build 0)  -->
<svg version="1.1" id="Capa_1" xmlns="http://www.w3.org/2000/svg" xmlns:xlink="http://www.w3.org/1999/xlink" x="0px" y="0px"
	 viewBox="0 0 512 512" style="enable-background:new 0 0 512 512;" xml:space="preserve">
<circle style="fill:#00FFCE;" cx="256" cy="256" r="256"/>
<path style="fill:#05E0B6;" d="M256,512c141.385,0,256-114.615,256-256c0-12.4-0.9-24.589-2.604-36.518L400.957,111.043
	L287.642,231.2l-44.247-44.247l-61.288,15.66l68.188,68.188L84.785,446.306C130.142,487.14,190.165,512,256,512z"/>
<path style="fill:#8D6EFF;" d="M65.685,427.223c2.997,3.326,6.093,6.594,9.296,9.796c3.202,3.202,6.47,6.299,9.796,9.296
	l98.038-98.038l-19.092-19.092L65.685,427.223z"/>
<path style="fill:#7600FF;" d="M74.722,436.754c0.087,0.088,0.171,0.178,0.259,0.265c3.202,3.202,6.47,6.299,9.796,9.296
	l98.038-98.038l-9.808-9.808L74.722,436.754z"/>
<path style="fill:#FFFFFF;" d="M263.778,299.134l-50.912-50.912l137.179-137.179c14.059-14.059,36.853-14.059,50.912,0l0,0
	c14.059,14.059,14.059,36.853,0,50.912L263.778,299.134z"/>
<path style="fill:#E4F2F6;" d="M400.957,111.043L400.957,111.043c-0.088-0.088-0.18-0.168-0.269-0.255L238.06,273.416l25.718,25.718
	l137.179-137.179C415.016,147.896,415.016,125.102,400.957,111.043z"/>
<path style="fill:#8D6EFF;" d="M351.459,109.629L351.459,109.629c14.059,14.059,14.059,36.853,0,50.912L242.565,269.435
	l-25.456-25.456L351.459,109.629z"/>
<path style="fill:#5900BF;" d="M109.629,402.371L109.629,402.371c-16.89-16.89-16.89-44.275,0-61.165l105.625-105.625l61.165,61.165
	L170.794,402.371C153.903,419.261,126.519,419.261,109.629,402.371z"/>
<path style="fill:#3B0080;" d="M109.374,402.103c0.087,0.088,0.167,0.181,0.255,0.269l0,0c16.89,16.89,44.275,16.89,61.165,0
	l105.625-105.625l-30.844-30.844L109.374,402.103z"/>
<polygon style="fill:#8D6EFF;" points="182.107,202.613 247.515,222.059 270.496,199.078 205.088,179.632 "/>
<path style="fill:#5900BF;" d="M243.395,186.953l-41.8-12.427c-6.327-1.881-13.176-0.145-17.844,4.522l0,0
	c-9.637,9.637-5.472,26.075,7.593,29.959l23.123,6.874L243.395,186.953z"/>
<rect x="186.584" y="271.416" transform="matrix(-0.7071 -0.7071 0.7071 -0.7071 118.5927 674.9531)" style="fill:#8D6EFF;" width="25" height="82.999"/>
<rect x="196.925" y="275.712" transform="matrix(0.7071 0.7071 -0.7071 0.7071 283.8651 -50.888)" style="fill:#7600FF;" width="12.87" height="82.999"/>
<g>
</g>
<g>
</g>
<g>
</g>
<g>
</g>
<g>
</g>
<g>
</g>
<g>
</g>
<g>
</g>
<g>
</g>
<g>
</g>
<g>
</g>
<g>
</g>
<g>
</g>
<g>
</g>
<g>
</g>
</svg>
