<?xml version="1.0" encoding="iso-8859-1"?>
<!-- Generator: Adobe Illustrator 19.0.0, SVG Export Plug-In . SVG Version: 6.00 Build 0)  -->
<svg version="1.1" id="Capa_1" xmlns="http://www.w3.org/2000/svg" xmlns:xlink="http://www.w3.org/1999/xlink" x="0px" y="0px"
	 viewBox="0 0 512 512" style="enable-background:new 0 0 512 512;" xml:space="preserve">
<circle style="fill:#FF0098;" cx="256" cy="256" r="256"/>
<path style="fill:#DF008B;" d="M508.397,298.93L247.966,38.5L141.864,442.333l64.921,64.921C222.714,510.357,239.164,512,256,512
	C382.754,512,487.973,419.873,508.397,298.93z"/>
<path style="fill:#FFF566;" d="M170.25,117.045h48.966c15.878,0,28.75,6.083,28.75-9.795V38.5l-22.333,10.894v10.703
	c0,16.331-13.239,29.57-29.57,29.57H170.25V117.045z"/>
<path style="fill:#FFE13C;" d="M225.633,49.394v10.703c0,10.91-5.913,20.433-14.704,25.558v31.391h8.288
	c15.878,0,28.75,6.083,28.75-9.795V38.5L225.633,49.394z"/>
<path style="fill:#E1FFFA;" d="M266.895,148.857H153.771v-28.493c0-11.996,9.725-21.72,21.72-21.72h69.683
	c11.996,0,21.72,9.725,21.72,21.72v28.493H266.895z"/>
<path style="fill:#D5ECF2;" d="M266.895,120.364c0-11.996-9.724-21.72-21.72-21.72h-34.246v50.213h55.967v-28.493H266.895z"/>
<rect x="141.86" y="128.33" style="fill:#5900BF;" width="136.94" height="314"/>
<rect x="210.93" y="128.33" style="fill:#3B0080;" width="67.874" height="314"/>
<path style="fill:#D5ECF2;" d="M275.333,337.192h79.537v-28.525c0-15.754-12.771-28.525-28.525-28.525h-2.385
	c-3.609,11.616-14.442,20.05-27.245,20.05h-7.524c-7.653,0-13.857,6.204-13.857,13.857v23.143H275.333z"/>
<path style="fill:#C5D9DD;" d="M354.87,308.667c0-15.754-12.771-28.525-28.525-28.525h-2.385c-1.12,3.605-2.938,6.902-5.293,9.737
	v47.313h36.203V308.667z"/>
<path style="fill:#E4F2F6;" d="M345.205,375.025h-55.909c-15.754,0-28.525-12.771-28.525-28.525l0,0
	c0-15.754,12.771-28.525,28.525-28.525h55.909c15.754,0,28.525,12.771,28.525,28.525l0,0
	C373.73,362.254,360.959,375.025,345.205,375.025z"/>
<path style="fill:#D5DFE2;" d="M345.205,317.975h-26.538v57.05h26.538c15.754,0,28.525-12.771,28.525-28.525l0,0
	C373.73,330.746,360.959,317.975,345.205,317.975z"/>
<path style="fill:#FFFFFF;" d="M354,421.5h-73.5c-20.711,0-37.5-16.789-37.5-37.5l0,0c0-20.711,16.789-37.5,37.5-37.5H354
	c20.711,0,37.5,16.789,37.5,37.5l0,0C391.5,404.711,374.711,421.5,354,421.5z"/>
<path style="fill:#E4F2F6;" d="M354,346.5h-35.333v75H354c20.711,0,37.5-16.789,37.5-37.5l0,0
	C391.5,363.289,374.711,346.5,354,346.5z"/>
<g>
</g>
<g>
</g>
<g>
</g>
<g>
</g>
<g>
</g>
<g>
</g>
<g>
</g>
<g>
</g>
<g>
</g>
<g>
</g>
<g>
</g>
<g>
</g>
<g>
</g>
<g>
</g>
<g>
</g>
</svg>
