<?xml version="1.0" encoding="iso-8859-1"?>
<!-- Generator: Adobe Illustrator 19.0.0, SVG Export Plug-In . SVG Version: 6.00 Build 0)  -->
<svg version="1.1" id="Capa_1" xmlns="http://www.w3.org/2000/svg" xmlns:xlink="http://www.w3.org/1999/xlink" x="0px" y="0px"
	 viewBox="0 0 512 512" style="enable-background:new 0 0 512 512;" xml:space="preserve">
<circle style="fill:#FFE13C;" cx="256" cy="256" r="256"/>
<path style="fill:#FFBA31;" d="M511.599,270.25L302.433,61.083l-92.865,176.443l50.891,50.891l-0.204,1.106l-90.669,149.392
	l72.717,72.717C246.838,511.873,251.404,512,256,512C392.602,512,504.204,405.005,511.599,270.25z"/>
<polygon style="fill:#FF0098;" points="292.269,241.897 292.269,191.276 219.731,191.276 219.731,241.897 150.662,263.748 
	169.585,438.917 342.415,438.917 361.338,263.748 "/>
<polygon style="fill:#DF008B;" points="361.338,263.748 292.269,241.897 292.269,191.276 255.571,191.276 255.571,438.917 
	342.415,438.917 "/>
<rect x="209.57" y="61.08" style="fill:#8D6EFF;" width="92.86" height="176.44"/>
<g>
	<rect x="255.57" y="61.08" style="fill:#7600FF;" width="46.861" height="176.44"/>
	<rect x="187.17" y="288.88" style="fill:#7600FF;" width="137.66" height="109.25"/>
</g>
<rect x="255.57" y="288.88" style="fill:#5900BF;" width="69.26" height="109.25"/>
<g>
</g>
<g>
</g>
<g>
</g>
<g>
</g>
<g>
</g>
<g>
</g>
<g>
</g>
<g>
</g>
<g>
</g>
<g>
</g>
<g>
</g>
<g>
</g>
<g>
</g>
<g>
</g>
<g>
</g>
</svg>
