<?xml version="1.0" encoding="iso-8859-1"?>
<!-- Generator: Adobe Illustrator 19.0.0, SVG Export Plug-In . SVG Version: 6.00 Build 0)  -->
<svg version="1.1" id="Capa_1" xmlns="http://www.w3.org/2000/svg" xmlns:xlink="http://www.w3.org/1999/xlink" x="0px" y="0px"
	 viewBox="0 0 512 512" style="enable-background:new 0 0 512 512;" xml:space="preserve">
<circle style="fill:#00FFCE;" cx="256" cy="256" r="256"/>
<path style="fill:#05E0B6;" d="M258.82,511.964c139.143-1.504,251.64-114.001,253.144-253.144L386.477,133.333l-63.332,60.297
	l-90.992-90.992L102.638,232.153l90.821,90.821l-69.947,53.681L258.82,511.964z"/>
<polygon style="fill:#5900BF;" points="288.08,190.676 190.676,288.08 102.638,232.153 232.153,102.638 "/>
<polygon style="fill:#3B0080;" points="288.08,190.676 232.153,102.638 168.419,166.372 240.402,238.354 "/>
<polygon style="fill:#7600FF;" points="89.526,342.67 188.536,441.68 217.703,412.512 170.606,365.415 193.62,342.402 
	240.716,389.499 262.659,367.556 215.562,320.459 238.575,297.446 285.672,344.543 344.543,285.672 297.446,238.575 
	320.459,215.562 367.556,262.659 389.499,240.716 342.402,193.62 365.415,170.607 412.512,217.703 441.68,188.535 342.67,89.525 "/>
<polygon style="fill:#5900BF;" points="412.512,217.703 441.68,188.535 342.67,89.525 217.121,215.074 316.131,314.084 
	344.543,285.672 297.446,238.575 320.459,215.563 367.556,262.659 389.499,240.716 342.402,193.62 365.415,170.606 "/>
<g>
</g>
<g>
</g>
<g>
</g>
<g>
</g>
<g>
</g>
<g>
</g>
<g>
</g>
<g>
</g>
<g>
</g>
<g>
</g>
<g>
</g>
<g>
</g>
<g>
</g>
<g>
</g>
<g>
</g>
</svg>
