<?xml version="1.0" encoding="iso-8859-1"?>
<!-- Generator: Adobe Illustrator 19.0.0, SVG Export Plug-In . SVG Version: 6.00 Build 0)  -->
<svg version="1.1" id="Capa_1" xmlns="http://www.w3.org/2000/svg" xmlns:xlink="http://www.w3.org/1999/xlink" x="0px" y="0px"
	 viewBox="0 0 512 512" style="enable-background:new 0 0 512 512;" xml:space="preserve">
<circle style="fill:#7600FF;" cx="256" cy="256" r="256"/>
<path style="fill:#5900BF;" d="M511.515,271.574L341.19,101.25l-2.117,72.073L271.5,105.75l-48.196,14.804L168.5,65.75
	l-33.762,19.321l-6.692,29.966l63.762,63.762l-11.283,6.156L147.5,151.931l-50.5,20l37.911,37.911l-12.661,6.908l174.855,174.855
	l-37.77,32.645l75.395,75.396C432.866,467.957,505.087,378.641,511.515,271.574z"/>
<path style="fill:#FFF566;" d="M343.374,188.434h-43.33c-13.316,0-24.111-10.795-24.111-24.111l0,0
	c0-13.316,10.795-24.111,24.111-24.111h43.33c13.316,0,24.111,10.795,24.111,24.111l0,0
	C367.485,177.639,356.69,188.434,343.374,188.434z"/>
<path style="fill:#FFE13C;" d="M343.374,140.212h-21.136v48.222h21.136c13.316,0,24.111-10.795,24.111-24.111l0,0
	C367.485,151.007,356.69,140.212,343.374,140.212z"/>
<rect x="259.33" y="161.93" style="fill:#FFFFFF;" width="124.75" height="262.32"/>
<rect x="322.24" y="161.93" style="fill:#E4F2F6;" width="61.845" height="262.32"/>
<rect x="259.33" y="234.13" style="fill:#FFE13C;" width="124.75" height="96.69"/>
<rect x="322.24" y="234.13" style="fill:#FFBA31;" width="61.845" height="96.69"/>
<rect x="302.23" y="101.25" style="fill:#FFFFFF;" width="38.962" height="38.962"/>
<rect x="322.24" y="101.25" style="fill:#E4F2F6;" width="18.952" height="38.962"/>
<g>
	<path style="fill:#00FFCE;" d="M302.228,105.705c8.323,0,15.069,6.747,15.069,15.069s-6.747,15.069-15.069,15.069V105.705z"/>
	<path style="fill:#00FFCE;" d="M271.5,125.75H151c-16.542,0-30-13.458-30-30s13.458-30,30-30h17.5v20H151c-5.514,0-10,4.486-10,10
		s4.486,10,10,10h120.5V125.75z"/>
	<path style="fill:#00FFCE;" d="M219.499,205.75h-17.5c-16.542,0-30-13.458-30-30s13.458-30,30-30H239v20h-37.001
		c-5.514,0-10,4.486-10,10s4.486,10,10,10h17.5V205.75z"/>
	<rect x="97" y="151.93" style="fill:#00FFCE;" width="50.5" height="20"/>
	<rect x="122.25" y="196.75" style="fill:#00FFCE;" width="37.25" height="20"/>
</g>
<g>
</g>
<g>
</g>
<g>
</g>
<g>
</g>
<g>
</g>
<g>
</g>
<g>
</g>
<g>
</g>
<g>
</g>
<g>
</g>
<g>
</g>
<g>
</g>
<g>
</g>
<g>
</g>
<g>
</g>
</svg>
