<?xml version="1.0" encoding="iso-8859-1"?>
<!-- Generator: Adobe Illustrator 19.0.0, SVG Export Plug-In . SVG Version: 6.00 Build 0)  -->
<svg version="1.1" id="Capa_1" xmlns="http://www.w3.org/2000/svg" xmlns:xlink="http://www.w3.org/1999/xlink" x="0px" y="0px"
	 viewBox="0 0 512 512" style="enable-background:new 0 0 512 512;" xml:space="preserve">
<circle style="fill:#FF0098;" cx="256" cy="256" r="256"/>
<path style="fill:#DF008B;" d="M512,256c0-0.923-0.025-1.841-0.035-2.762L346.561,87.834l-93.371,47.237L131.663,409.204
	L233.46,511.001C240.889,511.649,248.403,512,256,512C397.385,512,512,397.385,512,256z"/>
<polygon style="fill:#FFFFFF;" points="411.874,257.777 424.084,166.052 374.043,216.092 370.749,240.838 170.415,341.585 
	271.162,141.251 296.52,137.875 346.561,87.834 254.223,100.126 237.852,111.779 102.796,380.337 131.663,409.204 400.221,274.148 
	"/>
<polygon style="fill:#E4F2F6;" points="374.043,216.092 370.749,240.838 170.415,341.585 170.415,341.585 117.227,394.768 
	131.663,409.204 400.221,274.148 411.874,257.777 424.083,166.052 "/>
<polygon style="fill:#FFF566;" points="245.516,192.247 213.49,160.222 150.868,284.746 182.893,316.772 "/>
<polygon style="fill:#FFE13C;" points="351.778,298.51 319.753,266.484 195.228,329.107 227.254,361.132 "/>
<g>
</g>
<g>
</g>
<g>
</g>
<g>
</g>
<g>
</g>
<g>
</g>
<g>
</g>
<g>
</g>
<g>
</g>
<g>
</g>
<g>
</g>
<g>
</g>
<g>
</g>
<g>
</g>
<g>
</g>
</svg>
