<?xml version="1.0" encoding="iso-8859-1"?>
<!-- Generator: Adobe Illustrator 19.0.0, SVG Export Plug-In . SVG Version: 6.00 Build 0)  -->
<svg version="1.1" id="Capa_1" xmlns="http://www.w3.org/2000/svg" xmlns:xlink="http://www.w3.org/1999/xlink" x="0px" y="0px"
	 viewBox="0 0 512 512" style="enable-background:new 0 0 512 512;" xml:space="preserve">
<circle style="fill:#00FFCE;" cx="256" cy="256" r="256"/>
<path style="fill:#05E0B6;" d="M512,256c0-14.733-1.262-29.17-3.652-43.222L403.031,107.461L124.049,419.62l88.729,88.729
	C226.83,510.738,241.267,512,256,512C397.385,512,512,397.385,512,256z"/>
<polygon style="fill:#7600FF;" points="124.049,419.619 92.381,387.951 202.717,262.535 249.465,309.283 "/>
<polygon style="fill:#5900BF;" points="107.06,402.63 124.049,419.62 249.465,309.283 224.936,284.754 "/>
<path style="fill:#FFFFFF;" d="M242.679,302.497l-33.176-33.176l118.922-118.922c13.908-13.908,30.451-24.903,48.659-32.34
	l25.947-10.598l-9.123,24.666c-7.402,20.014-19.048,38.189-34.137,53.278L242.679,302.497z"/>
<path style="fill:#E4F2F6;" d="M224.936,284.754l17.743,17.743l117.092-117.092c15.089-15.089,26.734-33.264,34.137-53.278
	l9.123-24.666l0,0L224.936,284.754z"/>
<g>
</g>
<g>
</g>
<g>
</g>
<g>
</g>
<g>
</g>
<g>
</g>
<g>
</g>
<g>
</g>
<g>
</g>
<g>
</g>
<g>
</g>
<g>
</g>
<g>
</g>
<g>
</g>
<g>
</g>
</svg>
