<?xml version="1.0" encoding="iso-8859-1"?>
<!-- Generator: Adobe Illustrator 19.0.0, SVG Export Plug-In . SVG Version: 6.00 Build 0)  -->
<svg version="1.1" id="Capa_1" xmlns="http://www.w3.org/2000/svg" xmlns:xlink="http://www.w3.org/1999/xlink" x="0px" y="0px"
	 viewBox="0 0 512 512" style="enable-background:new 0 0 512 512;" xml:space="preserve">
<circle style="fill:#FF0098;" cx="256" cy="256" r="256"/>
<path style="fill:#DF008B;" d="M149.667,319L331.38,500.713c99.77-30.696,173.529-120.726,180.121-228.906L346.438,106.745
	L149.667,319z"/>
<path style="fill:#7600FF;" d="M438.246,430.23c0-28.752-20.225-63.537-48.392-69.303l-74.927-15.339
	c-9.133-1.87-15.691-9.906-15.691-19.229V272.87h-86.471v53.489c0,9.323-6.558,17.359-15.691,19.229l-74.927,15.339
	c-28.168,5.767-48.392,40.552-48.392,69.303v5.534c2.68,2.717,5.423,5.372,8.221,7.968c3.261,2.855,6.58,5.787,9.957,8.772
	C136.362,489.639,193.566,512,256,512s119.638-22.361,164.068-59.496c3.376-2.986,6.696-5.917,9.957-8.772
	c2.799-2.596,5.541-5.251,8.221-7.968V430.23z"/>
<path style="fill:#5900BF;" d="M389.853,360.927l-74.927-15.339c-9.133-1.87-15.691-9.906-15.691-19.229V272.87h-43.664v239.125
	c0.143,0,0.285,0.005,0.429,0.005c62.434,0,119.638-22.36,164.068-59.496c3.376-2.985,6.696-5.917,9.957-8.772
	c2.799-2.596,5.541-5.251,8.221-7.968v-5.534C438.246,401.478,418.021,366.693,389.853,360.927z"/>
<path style="fill:#FFFFFF;" d="M267.456,336.504h-22.913c-47.474,0-85.96-38.486-85.96-85.96v-65.239
	c0-53.802,43.615-97.416,97.416-97.416l0,0c53.802,0,97.416,43.615,97.416,97.416v65.239
	C353.417,298.018,314.931,336.504,267.456,336.504z"/>
<path style="fill:#E4F2F6;" d="M256,87.888L256,87.888c-0.143,0-0.286,0.005-0.429,0.006v248.61h11.885
	c47.474,0,85.96-38.486,85.96-85.96v-65.239C353.417,131.503,309.802,87.888,256,87.888z"/>
<circle style="fill:#FFFFFF;" cx="152.87" cy="221.83" r="24.17"/>
<circle style="fill:#EDEFEF;" cx="359.12" cy="221.83" r="24.17"/>
<path style="fill:#FFE13C;" d="M285.016,92.283c0,0-41.35-37.95-107.975-4.395C114.247,119.513,111.667,246,149.667,319
	c0,0,92.667-63,135.35-164V92.283H285.016z"/>
<path style="fill:#FFBA31;" d="M285.016,92.283c0,0-10.504-9.633-29.445-14.901v131.916c11-16.55,21.165-34.705,29.445-54.297
	V92.283z"/>
<path style="fill:#FFA733;" d="M285.016,92.283c0,0,63.506-11.283,81.078,44.717s-6.969,144-6.969,144s-25.426-120-74.109-126
	V92.283z"/>
<g>
</g>
<g>
</g>
<g>
</g>
<g>
</g>
<g>
</g>
<g>
</g>
<g>
</g>
<g>
</g>
<g>
</g>
<g>
</g>
<g>
</g>
<g>
</g>
<g>
</g>
<g>
</g>
<g>
</g>
</svg>
