<?xml version="1.0" encoding="iso-8859-1"?>
<!-- Generator: Adobe Illustrator 19.0.0, SVG Export Plug-In . SVG Version: 6.00 Build 0)  -->
<svg version="1.1" id="Capa_1" xmlns="http://www.w3.org/2000/svg" xmlns:xlink="http://www.w3.org/1999/xlink" x="0px" y="0px"
	 viewBox="0 0 512 512" style="enable-background:new 0 0 512 512;" xml:space="preserve">
<circle style="fill:#7600FF;" cx="256" cy="256" r="256"/>
<path style="fill:#5900BF;" d="M512,256c0-3.92-0.103-7.815-0.277-11.691l-61.582-61.583l-276.712,7.107l-123.57,76.798
	l39.612,39.612l-18.581-2.87l39.825,39.825l-14.907,17.067l24.375,24.375l-4.017,2.627l124.245,124.245
	C245.57,511.824,250.764,512,256,512C397.385,512,512,397.385,512,256z"/>
<path style="fill:#FFE13C;" d="M450.141,182.726l-212.47-45.841c-37.302-8.048-76.052,4.567-101.466,33.034L49.86,266.633
	l140.542-61.482l222.884,59.492L450.141,182.726z"/>
<polygon style="fill:#FFBA31;" points="450.141,182.726 255.571,140.747 255.571,222.544 413.285,264.641 "/>
<path style="fill:#8D6EFF;" d="M386,342.767c-45.582-48.792-109.826-79.196-181.025-79.196c-49.333,0-95.321,14.608-134.084,39.804
	c7.481,8.007,15.473,15.508,23.907,22.472l-16.605,15.295l17.615,19.124l20.263-18.665c8.006,5.302,16.32,10.158,24.921,14.515
	l-24.826,31.153l20.334,16.203l29.12-36.543c10.17,3.821,20.65,6.983,31.391,9.442l-14.446,47.338l24.868,7.589l15.398-50.458
	c9.543,1.13,19.244,1.731,29.083,1.731C301.249,382.57,347.237,367.962,386,342.767z"/>
<path style="fill:#7600FF;" d="M386,342.767c-34.484-36.912-79.652-63.287-130.429-73.949v113.719
	c1.482-0.022,2.96-0.057,4.435-0.105l8.684,41.595l25.451-5.313l-8.042-38.522c11.719-1.638,23.18-4.102,34.324-7.339l23.392,32.208
	l21.037-15.279l-18.838-25.938C360.017,358.028,373.392,350.961,386,342.767z"/>
<g>
</g>
<g>
</g>
<g>
</g>
<g>
</g>
<g>
</g>
<g>
</g>
<g>
</g>
<g>
</g>
<g>
</g>
<g>
</g>
<g>
</g>
<g>
</g>
<g>
</g>
<g>
</g>
<g>
</g>
</svg>
