<?xml version="1.0" encoding="iso-8859-1"?>
<!-- Generator: Adobe Illustrator 19.0.0, SVG Export Plug-In . SVG Version: 6.00 Build 0)  -->
<svg version="1.1" id="Capa_1" xmlns="http://www.w3.org/2000/svg" xmlns:xlink="http://www.w3.org/1999/xlink" x="0px" y="0px"
	 viewBox="0 0 512 512" style="enable-background:new 0 0 512 512;" xml:space="preserve">
<circle style="fill:#FFE13C;" cx="256" cy="256" r="256"/>
<path style="fill:#FFBA31;" d="M512,256c0-2.653-0.054-5.294-0.134-7.928L338.497,74.703l-143.045,16.4l15.235,134.378L143,448.333
	l57.647,57.647C218.474,509.91,236.992,512,256,512C397.385,512,512,397.385,512,256z"/>
<path style="fill:#8D6EFF;" d="M304.332,223.377c20.692-14.989,34.165-39.333,34.165-66.838V91.103H173.503v65.437
	c0,27.504,13.473,51.849,34.165,66.838c-29.635,16.873-49.665,48.751-49.665,85.223v119.437h31V308.6
	c0-36.942,30.055-66.997,66.997-66.997s66.997,30.055,66.997,66.997v119.437h31V308.6
	C353.997,272.128,333.967,240.25,304.332,223.377z M204.503,122.103h102.994v34.437c0,28.396-23.102,51.497-51.497,51.497
	s-51.497-23.101-51.497-51.497L204.503,122.103L204.503,122.103z"/>
<path style="fill:#7600FF;" d="M304.332,223.377c20.692-14.989,34.165-39.333,34.165-66.838V91.103h-82.926v31h51.926v34.437
	c0,28.396-23.102,51.497-51.497,51.497c-0.144,0-0.285-0.01-0.428-0.011v2.583v28.417v2.589c0.143-0.001,0.285-0.011,0.429-0.011
	c36.942,0,66.997,30.055,66.997,66.997v119.437h31V308.6C353.997,272.128,333.967,240.25,304.332,223.377z"/>
<rect x="143" y="361" style="fill:#FF0098;" width="58.667" height="87.33"/>
<rect x="309.16" y="361" style="fill:#DF008B;" width="58.667" height="87.33"/>
<rect x="173.5" y="74.7" style="fill:#7600FF;" width="164.99" height="48.703"/>
<rect x="255.57" y="74.7" style="fill:#5900BF;" width="82.926" height="48.703"/>
<g>
</g>
<g>
</g>
<g>
</g>
<g>
</g>
<g>
</g>
<g>
</g>
<g>
</g>
<g>
</g>
<g>
</g>
<g>
</g>
<g>
</g>
<g>
</g>
<g>
</g>
<g>
</g>
<g>
</g>
</svg>
