<?xml version="1.0" encoding="iso-8859-1"?>
<!-- Generator: Adobe Illustrator 19.0.0, SVG Export Plug-In . SVG Version: 6.00 Build 0)  -->
<svg version="1.1" id="Capa_1" xmlns="http://www.w3.org/2000/svg" xmlns:xlink="http://www.w3.org/1999/xlink" x="0px" y="0px"
	 viewBox="0 0 512 512" style="enable-background:new 0 0 512 512;" xml:space="preserve">
<circle style="fill:#FF0098;" cx="256" cy="256" r="256"/>
<path style="fill:#DF008B;" d="M276.638,511.17c126.302-10.077,226.75-111.82,234.819-238.679L400.773,161.807l-72.367,45.473
	L217.187,96.061l-34.853,31.903L287.41,233.041L109.992,344.523L276.638,511.17z"/>
<path style="fill:#FFFFFF;" d="M371.833,361.333H144.167c-23.84,0-43.167-19.326-43.167-43.167V193.833
	c0-23.84,19.326-43.167,43.167-43.167h227.667c23.84,0,43.167,19.326,43.167,43.167v124.333
	C415,342.007,395.674,361.333,371.833,361.333z"/>
<path style="fill:#E4F2F6;" d="M371.833,150.667H255.571v210.667h116.262c23.84,0,43.167-19.327,43.167-43.167V193.833
	C415,169.993,395.674,150.667,371.833,150.667z"/>
<path style="fill:#E6FAFF;" d="M357.846,327.977H158.154c-11.407,0-20.654-9.247-20.654-20.654V204.678
	c0-11.407,9.247-20.654,20.654-20.654h199.691c11.407,0,20.654,9.247,20.654,20.654v102.644
	C378.5,318.729,369.253,327.977,357.846,327.977z"/>
<path style="fill:#CCE4EA;" d="M357.846,184.023H255.571v143.953h102.274c11.407,0,20.654-9.247,20.654-20.654V204.678
	C378.5,193.271,369.253,184.023,357.846,184.023z"/>
<circle style="fill:#99FFEB;" cx="148.33" cy="229.67" r="34"/>
<path style="fill:#00FFCE;" d="M148.333,195.667c-0.168,0-0.333,0.01-0.5,0.013v67.975c0.167,0.002,0.332,0.013,0.5,0.013
	c18.778,0,34-15.222,34-34C182.333,210.889,167.111,195.667,148.333,195.667z"/>
<circle style="fill:#99FFEB;" cx="171.83" cy="261.83" r="28.833"/>
<path style="fill:#00FFCE;" d="M171.833,233c-0.064,0-0.127,0.004-0.19,0.005v57.657c0.064,0,0.127,0.005,0.19,0.005
	c15.924,0,28.833-12.909,28.833-28.833C200.667,245.909,187.758,233,171.833,233z"/>
<circle style="fill:#99FFEB;" cx="200.67" cy="113" r="23.667"/>
<path style="fill:#00FFCE;" d="M224.333,113c0-13.023-10.519-23.586-23.524-23.663v47.326
	C213.814,136.586,224.333,126.023,224.333,113z"/>
<circle style="fill:#99FFEB;" cx="224.33" cy="191" r="23.667"/>
<path style="fill:#00FFCE;" d="M248,191c0-12.975-10.443-23.506-23.381-23.66v47.319C237.557,214.506,248,203.975,248,191z"/>
<g>
</g>
<g>
</g>
<g>
</g>
<g>
</g>
<g>
</g>
<g>
</g>
<g>
</g>
<g>
</g>
<g>
</g>
<g>
</g>
<g>
</g>
<g>
</g>
<g>
</g>
<g>
</g>
<g>
</g>
</svg>
