<?xml version="1.0" encoding="iso-8859-1"?>
<!-- Generator: Adobe Illustrator 19.0.0, SVG Export Plug-In . SVG Version: 6.00 Build 0)  -->
<svg version="1.1" id="Capa_1" xmlns="http://www.w3.org/2000/svg" xmlns:xlink="http://www.w3.org/1999/xlink" x="0px" y="0px"
	 viewBox="0 0 512 512" style="enable-background:new 0 0 512 512;" xml:space="preserve">
<circle style="fill:#FFE13C;" cx="256" cy="256" r="256"/>
<path style="fill:#FFBA31;" d="M395.965,144.678l-242.954,259.62l107.643,107.643c137.686-2.457,248.83-113.601,251.287-251.287
	L395.965,144.678z"/>
<path style="fill:#7600FF;" d="M177.622,364.267l-64.619-64.619l-32.321,32.321l85.71,85.71c18.185,18.185,47.67,18.185,65.855,0
	l185.432-185.432c18.185-18.185,18.185-47.67,0-65.855l-85.71-85.71l-32.321,32.321l64.619,64.619L177.622,364.267z"/>
<g>
	<path style="fill:#5900BF;" d="M177.622,364.267l-64.619-64.619l-32.321,32.321l85.71,85.71c18.186,18.185,47.67,18.185,65.855,0
		l92.549-92.549l-54.019-54.018L177.622,364.267z"/>
	
		<rect x="131.209" y="289.912" transform="matrix(-0.7071 -0.7071 0.7071 -0.7071 101.75 649.9698)" style="fill:#5900BF;" width="108.559" height="28"/>
	
		<rect x="170.691" y="250.442" transform="matrix(-0.7071 -0.7071 0.7071 -0.7071 197.0605 610.5087)" style="fill:#5900BF;" width="108.559" height="28"/>
</g>
<g>
	
		<rect x="210.167" y="210.969" transform="matrix(-0.7071 -0.7071 0.7071 -0.7071 292.3611 571.0377)" style="fill:#7600FF;" width="108.559" height="28"/>
	
		<rect x="249.642" y="171.482" transform="matrix(-0.7071 -0.7071 0.7071 -0.7071 387.6716 531.5424)" style="fill:#7600FF;" width="108.559" height="28"/>
</g>
<g>
</g>
<g>
</g>
<g>
</g>
<g>
</g>
<g>
</g>
<g>
</g>
<g>
</g>
<g>
</g>
<g>
</g>
<g>
</g>
<g>
</g>
<g>
</g>
<g>
</g>
<g>
</g>
<g>
</g>
</svg>
