<?xml version="1.0" encoding="iso-8859-1"?>
<!-- Generator: Adobe Illustrator 19.0.0, SVG Export Plug-In . SVG Version: 6.00 Build 0)  -->
<svg version="1.1" id="Capa_1" xmlns="http://www.w3.org/2000/svg" xmlns:xlink="http://www.w3.org/1999/xlink" x="0px" y="0px"
	 viewBox="0 0 512 512" style="enable-background:new 0 0 512 512;" xml:space="preserve">
<circle style="fill:#7600FF;" cx="256" cy="256" r="256"/>
<path style="fill:#5900BF;" d="M512,256c0-1.298-0.03-2.589-0.049-3.882L348.833,89l-234.928,55.667L22.133,360.252l0,0
	l129.615,129.615C183.594,504.085,218.871,512,256,512C397.385,512,512,397.385,512,256z"/>
<path style="fill:#FFFFFF;" d="M8.784,322.656c3.488,12.967,7.961,25.529,13.348,37.596l97.24-208.282l165.767-33.921l-5.613-27.432
	L99.961,127.363L8.784,322.656z"/>
<path style="fill:#FF639F;" d="M199,433.917c-16.542,0-30-13.458-30-30v-17.5h20v17.5c0,5.514,4.486,10,10,10s10-4.486,10-10v-120.5
	h20v120.5C229,420.458,215.542,433.917,199,433.917z"/>
<path style="fill:#FF0098;" d="M394.133,366.478c-16.542,0-30-13.458-30-30v-37.001h20v37.001c0,5.514,4.486,10,10,10
	s10-4.486,10-10v-17.5h20v17.5C424.133,353.02,410.675,366.478,394.133,366.478z"/>
<g>
	<rect x="269.67" y="314.08" style="fill:#FF639F;" width="20" height="50.5"/>
	<rect x="269.67" y="398.67" style="fill:#FF639F;" width="20" height="50.5"/>
</g>
<g>
	<rect x="319.64" y="284.08" style="fill:#FF0098;" width="20" height="37.25"/>
	<rect x="319.64" y="344.33" style="fill:#FF0098;" width="20" height="110.08"/>
</g>
<rect x="249.83" y="89" style="fill:#05E0B6;" width="99" height="50.667"/>
<rect x="300.81" y="89" style="fill:#06B795;" width="48.02" height="50.667"/>
<path style="fill:#99FFEB;" d="M155.2,267.133C155.2,187.531,219.731,123,299.333,123s144.133,64.531,144.133,144.133H155.2z"/>
<g>
	<path style="fill:#00FFCE;" d="M300.81,123.019v144.115h142.657C443.467,188.024,379.731,123.812,300.81,123.019z"/>
	<path style="fill:#00FFCE;" d="M299.333,123c-59.945,0-111.337,36.598-133.067,88.667H432.4
		C410.671,159.598,359.279,123,299.333,123z"/>
</g>
<path style="fill:#05E0B6;" d="M300.81,123.028v88.638H432.4C410.85,160.027,360.119,123.625,300.81,123.028z"/>
<circle style="fill:#00FFCE;" cx="116.67" cy="144.67" r="30.333"/>
<g>
</g>
<g>
</g>
<g>
</g>
<g>
</g>
<g>
</g>
<g>
</g>
<g>
</g>
<g>
</g>
<g>
</g>
<g>
</g>
<g>
</g>
<g>
</g>
<g>
</g>
<g>
</g>
<g>
</g>
</svg>
