<?xml version="1.0" encoding="iso-8859-1"?>
<!-- Generator: Adobe Illustrator 19.0.0, SVG Export Plug-In . SVG Version: 6.00 Build 0)  -->
<svg version="1.1" id="Capa_1" xmlns="http://www.w3.org/2000/svg" xmlns:xlink="http://www.w3.org/1999/xlink" x="0px" y="0px"
	 viewBox="0 0 512 512" style="enable-background:new 0 0 512 512;" xml:space="preserve">
<circle style="fill:#00FFCE;" cx="256" cy="256" r="256"/>
<path style="fill:#05E0B6;" d="M270.904,511.557C405.35,503.837,512,392.381,512,256c0-6.327-0.239-12.597-0.69-18.809L350.118,76
	l-188.237,35l128.304,128.304l-96.214,195.321L270.904,511.557z"/>
<polygon style="fill:#7600FF;" points="317.987,369 194.013,369 164.013,77 347.987,77 "/>
<polygon style="fill:#5900BF;" points="347.987,77 255.571,77 255.571,369 317.987,369 "/>
<rect x="193.97" y="368.62" style="fill:#FFFFFF;" width="124.06" height="66"/>
<rect x="255.57" y="368.62" style="fill:#E4F2F6;" width="62.45" height="66"/>
<path style="fill:#8D6EFF;" d="M270.5,411.5c0-8.008-6.492-14.5-14.5-14.5s-14.5,6.492-14.5,14.5h-47.528v23.125h124.055V411.5
	H270.5z"/>
<path style="fill:#7600FF;" d="M318.027,411.5H270.5c0-8.008-6.492-14.5-14.5-14.5c-0.145,0-0.285,0.018-0.429,0.021v37.604h62.455
	V411.5H318.027z"/>
<path style="fill:#FFF566;" d="M235.94,264.901c0,11.371-8.823,21.024-20.184,21.504c-0.365,0.015-0.733,0.023-1.102,0.023
	c-11.853,0-21.823-8.038-24.772-18.958c-0.58,2.742-0.891,5.582-0.891,8.496c0,22.568,18.295,40.863,40.863,40.863
	s40.863-18.295,40.863-40.862v-0.001V106H235.94V264.901z"/>
<g>
	<path style="fill:#FFE13C;" d="M270.717,275.966L270.717,275.966V106h-15.146v201.714
		C264.809,300.222,270.717,288.786,270.717,275.966z"/>
	<path style="fill:#FFE13C;" d="M228.549,206.815c0,9.641-7.481,17.826-17.114,18.233c-0.31,0.013-0.621,0.02-0.935,0.02
		c-10.05,0-18.504-6.815-21.004-16.075c-0.492,2.325-0.755,4.733-0.755,7.204c0,19.135,15.512,34.647,34.647,34.647
		s34.647-15.512,34.647-34.647v-0.001V106h-29.487L228.549,206.815L228.549,206.815z"/>
</g>
<g>
	<path style="fill:#FFBA31;" d="M258.036,216.196V106h-2.465v123.029C257.156,225.06,258.037,220.732,258.036,216.196
		L258.036,216.196z"/>
	<path style="fill:#FFBA31;" d="M298.816,176.061c0,6.7,5.199,12.388,11.893,12.671c0.215,0.009,0.432,0.014,0.649,0.014
		c6.984,0,12.859-4.736,14.597-11.171c0.342,1.616,0.525,3.289,0.525,5.006c0,13.298-10.78,24.078-24.078,24.078
		s-24.078-10.78-24.078-24.078l0,0V106h20.492V176.061z"/>
</g>
<path style="fill:#FFF566;" d="M219.133,164.296c0,6.818-5.291,12.606-12.103,12.894c-0.219,0.009-0.439,0.014-0.661,0.014
	c-7.107,0-13.086-4.82-14.854-11.368c-0.348,1.644-0.534,3.347-0.534,5.094c0,13.532,10.97,24.502,24.502,24.502
	s24.502-10.97,24.502-24.502l0,0V106h-20.853L219.133,164.296L219.133,164.296z"/>
<rect x="161.88" y="76" style="fill:#8D6EFF;" width="188.24" height="35"/>
<rect x="255.57" y="76" style="fill:#7600FF;" width="94.55" height="35"/>
<g>
</g>
<g>
</g>
<g>
</g>
<g>
</g>
<g>
</g>
<g>
</g>
<g>
</g>
<g>
</g>
<g>
</g>
<g>
</g>
<g>
</g>
<g>
</g>
<g>
</g>
<g>
</g>
<g>
</g>
</svg>
