<?xml version="1.0" encoding="iso-8859-1"?>
<!-- Generator: Adobe Illustrator 19.0.0, SVG Export Plug-In . SVG Version: 6.00 Build 0)  -->
<svg version="1.1" id="Capa_1" xmlns="http://www.w3.org/2000/svg" xmlns:xlink="http://www.w3.org/1999/xlink" x="0px" y="0px"
	 viewBox="0 0 512 512" style="enable-background:new 0 0 512 512;" xml:space="preserve">
<circle style="fill:#7600FF;" cx="256" cy="256" r="256"/>
<path style="fill:#5900BF;" d="M495.071,347.691L214.38,67l-85.956,337.792l106.323,106.323C241.756,511.691,248.842,512,256,512
	C365.07,512,458.193,443.782,495.071,347.691z"/>
<path style="fill:#00FFCE;" d="M212.897,402.842h-58.569c-18.835,0-34.103-15.269-34.103-34.103v-210.55
	c0-18.835,15.269-34.103,34.103-34.103h58.569c18.835,0,34.103,15.269,34.103,34.103v210.55
	C247,387.574,231.731,402.842,212.897,402.842z"/>
<path style="fill:#05E0B6;" d="M212.897,124.086l-29.284,0.016v278.756l29.284-0.016c18.835,0,34.103-15.269,34.103-34.103v-210.55
	C247,139.354,231.731,124.086,212.897,124.086z"/>
<path style="fill:#FFFFFF;" d="M126.75,316.829L126.75,316.829c0-36.77,29.808-66.579,66.579-66.579h52.668
	c15.765,0,29.849-9.853,35.254-24.662L284.75,216l19.831,19.133c10.051,9.698,23.474,15.117,37.441,15.117l0,0
	c23.874,0,43.228,19.354,43.228,43.228v23.351H126.75z"/>
<path style="fill:#E4F2F6;" d="M385.25,293.478c0-23.875-19.354-43.228-43.228-43.228l0,0c-13.967,0-27.389-5.419-37.44-15.117
	L284.75,216l-3.499,9.587c-4.278,11.723-13.996,20.333-25.679,23.417v67.825H385.25V293.478z"/>
<path style="fill:#FFBA31;" d="M310.5,435h-109C144.339,435,98,388.661,98,331.5v-30h316v30C414,388.661,367.661,435,310.5,435z"/>
<path style="fill:#FFA733;" d="M255.571,301.5V435H310.5c57.161,0,103.5-46.338,103.5-103.5v-30H255.571z"/>
<path style="fill:#FFFFFF;" d="M213.75,207.391c0,16.645-13.493,30.138-30.138,30.138s-30.138-13.493-30.138-30.138
	s30.138-63.25,30.138-63.25S213.75,190.747,213.75,207.391z"/>
<path style="fill:#D5ECF2;" d="M183.548,237.527c0.022,0,0.043,0.001,0.065,0.001c16.645,0,30.138-13.493,30.138-30.138
	s-30.138-63.25-30.138-63.25L183.548,237.527z"/>
<rect x="152.85" y="67" style="fill:#FFFFFF;" width="61.53" height="57.09"/>
<rect x="183.61" y="67" style="fill:#D5ECF2;" width="30.767" height="57.09"/>
<g>
</g>
<g>
</g>
<g>
</g>
<g>
</g>
<g>
</g>
<g>
</g>
<g>
</g>
<g>
</g>
<g>
</g>
<g>
</g>
<g>
</g>
<g>
</g>
<g>
</g>
<g>
</g>
<g>
</g>
</svg>
