<?xml version="1.0" encoding="iso-8859-1"?>
<!-- Generator: Adobe Illustrator 19.0.0, SVG Export Plug-In . SVG Version: 6.00 Build 0)  -->
<svg version="1.1" id="Capa_1" xmlns="http://www.w3.org/2000/svg" xmlns:xlink="http://www.w3.org/1999/xlink" x="0px" y="0px"
	 viewBox="0 0 512 512" style="enable-background:new 0 0 512 512;" xml:space="preserve">
<circle style="fill:#7600FF;" cx="256" cy="256" r="256"/>
<path style="fill:#5900BF;" d="M512,256c0-6.786-0.269-13.508-0.788-20.16L350.908,75.535l-143.551,37.714l-71.66,295.222
	l27.039,27.039l-1.644,0.956l74.748,74.748C242.493,511.73,249.215,512,256,512C397.385,512,512,397.385,512,256z"/>
<path style="fill:#99FFEB;" d="M350.908,103.529V75.535H161.092v27.994h-25.395V408.47h25.395v27.994h189.815V408.47h25.395V103.529
	H350.908z M286.389,136.236c0,3.744-3.035,6.779-6.779,6.779s-6.779,3.035-6.779,6.779v23.532c0,3.744,3.035,6.779,6.779,6.779
	s6.779,3.035,6.779,6.779v16.207c0,3.744-3.035,6.779-6.779,6.779s-6.779,3.035-6.779,6.779v16.36c0,1.724,0.629,3.411,1.838,4.641
	c4.645,4.724,7.513,11.201,7.513,18.349s-2.867,13.625-7.513,18.349c-1.209,1.23-1.838,2.917-1.838,4.641v13.944
	c0,3.744,3.035,6.779,6.779,6.779s6.779,3.035,6.779,6.779V322.7c0,3.744-3.035,6.779-6.779,6.779s-6.779,3.035-6.779,6.779v25.948
	c0,3.744,3.035,6.779,6.779,6.779s6.779,3.035,6.779,6.779v16.207c0,3.744-3.035,6.779-6.779,6.779h-47.22
	c-3.744,0-6.779-3.035-6.779-6.779v-16.207c0-3.744,3.035-6.779,6.779-6.779s6.779-3.035,6.779-6.779v-25.948
	c0-3.744-3.035-6.779-6.779-6.779s-6.779-3.035-6.779-6.779v-16.208c0-3.744,3.035-6.779,6.779-6.779s6.779-3.035,6.779-6.779
	V278.99c0-1.724-0.629-3.411-1.838-4.641c-4.645-4.724-7.513-11.201-7.513-18.349s2.867-13.625,7.513-18.349
	c1.209-1.23,1.838-2.917,1.838-4.641v-16.36c0-3.744-3.035-6.779-6.779-6.779s-6.779-3.035-6.779-6.779v-16.207
	c0-3.744,3.035-6.779,6.779-6.779s6.779-3.035,6.779-6.779v-23.532c0-3.744-3.035-6.779-6.779-6.779s-6.779-3.035-6.779-6.779
	V120.03c0-3.744,3.035-6.779,6.779-6.779h47.22c3.744,0,6.779,3.035,6.779,6.779V136.236z"/>
<path style="fill:#00FFCE;" d="M350.908,103.529V75.535h-95.336v37.714h24.039c3.744,0,6.779,3.035,6.779,6.779v16.207
	c0,3.744-3.035,6.779-6.779,6.779s-6.779,3.035-6.779,6.779v23.532c0,3.744,3.035,6.779,6.779,6.779s6.779,3.035,6.779,6.779v16.208
	c0,3.744-3.035,6.779-6.779,6.779s-6.779,3.035-6.779,6.779v16.36c0,1.724,0.629,3.411,1.838,4.641
	c4.645,4.724,7.512,11.201,7.512,18.35c0,7.149-2.867,13.625-7.512,18.35c-1.209,1.229-1.838,2.917-1.838,4.641v13.944
	c0,3.744,3.035,6.779,6.779,6.779s6.779,3.036,6.779,6.779V322.7c0,3.744-3.035,6.779-6.779,6.779s-6.779,3.035-6.779,6.779v25.947
	c0,3.744,3.035,6.779,6.779,6.779s6.779,3.035,6.779,6.779v16.207c0,3.744-3.035,6.779-6.779,6.779h-24.039v37.714h95.336v-27.994
	h25.395v-304.94H350.908z"/>
<g>
</g>
<g>
</g>
<g>
</g>
<g>
</g>
<g>
</g>
<g>
</g>
<g>
</g>
<g>
</g>
<g>
</g>
<g>
</g>
<g>
</g>
<g>
</g>
<g>
</g>
<g>
</g>
<g>
</g>
</svg>
