<?xml version="1.0" encoding="iso-8859-1"?>
<!-- Generator: Adobe Illustrator 19.0.0, SVG Export Plug-In . SVG Version: 6.00 Build 0)  -->
<svg version="1.1" id="Capa_1" xmlns="http://www.w3.org/2000/svg" xmlns:xlink="http://www.w3.org/1999/xlink" x="0px" y="0px"
	 viewBox="0 0 512 512" style="enable-background:new 0 0 512 512;" xml:space="preserve">
<circle style="fill:#00FFCE;" cx="256" cy="256" r="256"/>
<path style="fill:#05E0B6;" d="M238.271,319.556l153.496,153.496c65.081-40.795,110.512-110.034,118.846-190.305L327.024,99.159
	L238.271,319.556z"/>
<path style="fill:#FFE13C;" d="M2.205,289.667C18.69,415.139,126.028,512,256,512s237.31-96.861,253.795-222.333H2.205z"/>
<path style="fill:#FFBA31;" d="M509.795,289.667H256.167v222.332C386.063,511.915,493.317,415.085,509.795,289.667z"/>
<g>
	<path style="fill:#FFFFFF;" d="M252.546,289.667c-0.754,21.67,3.367,43.236,12.339,63.077c4.866,10.761,5.583,22.897,2.019,34.174
		c-3.989,12.617-12.731,22.778-24.616,28.611c-11.876,5.827-25.285,6.512-37.758,1.925c-23.254-8.549-36.248-33.952-29.582-57.832
		c3.273-11.722,10.759-21.667,21.081-28.003c17.935-11.012,33.112-25.352,44.745-41.953h-61.668c-2.036,1.449-4.127,2.84-6.28,4.162
		c-19.884,12.208-34.299,31.34-40.59,53.871c-12.837,45.986,12.197,94.908,56.992,111.377c10.465,3.847,21.278,5.76,32.043,5.76
		c13.878,0,27.679-3.18,40.552-9.497c22.868-11.222,39.688-30.775,47.363-55.057c6.862-21.709,5.478-45.081-3.896-65.81
		c-6.347-14.036-9.141-29.377-8.367-44.805H252.546z"/>
	<path style="fill:#FFFFFF;" d="M252.546,289.667c-0.438,12.577,0.778,25.116,3.62,37.305v-37.305H252.546z"/>
</g>
<path style="fill:#E4F2F6;" d="M305.291,334.472c-6.347-14.036-9.141-29.377-8.367-44.805h-40.757v37.305
	c2.055,8.814,4.954,17.446,8.719,25.772c4.866,10.761,5.583,22.897,2.019,34.174c-2.21,6.99-5.884,13.222-10.738,18.386v52.577
	c1.903-0.784,3.791-1.626,5.658-2.542c22.868-11.222,39.688-30.775,47.363-55.057C316.049,378.573,314.666,355.201,305.291,334.472z
	"/>
<path style="fill:#7600FF;" d="M271.911,273.533l55.113-174.374l-48.377,29.274l-42.306,133.855
	c-7.79,24.646-24.626,45.18-46.654,58.704c-12.431,7.632-22.157,19.8-26.423,35.079c-8.364,29.959,7.899,61.766,37.093,72.499
	c32.407,11.914,67.833-5.722,78.122-38.274c4.642-14.688,3.348-29.829-2.536-42.839
	C265.438,324.223,264.227,297.846,271.911,273.533z"/>
<path style="fill:#5900BF;" d="M271.911,273.533l55.113-174.374l-48.377,29.273l-22.48,71.127V421.03
	c10.212-7.304,18.239-17.843,22.313-30.735c4.642-14.688,3.348-29.829-2.536-42.839
	C265.438,324.223,264.227,297.846,271.911,273.533z"/>
<g>
	<circle style="fill:#FFA733;" cx="344.69" cy="331.33" r="17.667"/>
	<circle style="fill:#FFA733;" cx="417.33" cy="370.5" r="17.667"/>
	<circle style="fill:#FFA733;" cx="309.36" cy="447.17" r="17.667"/>
</g>
<g>
	<circle style="fill:#FFBA31;" cx="88.69" cy="319.17" r="17.667"/>
	<circle style="fill:#FFBA31;" cx="102.02" cy="391.17" r="17.667"/>
</g>
<g>
</g>
<g>
</g>
<g>
</g>
<g>
</g>
<g>
</g>
<g>
</g>
<g>
</g>
<g>
</g>
<g>
</g>
<g>
</g>
<g>
</g>
<g>
</g>
<g>
</g>
<g>
</g>
<g>
</g>
</svg>
