<?xml version="1.0" encoding="iso-8859-1"?>
<!-- Generator: Adobe Illustrator 19.0.0, SVG Export Plug-In . SVG Version: 6.00 Build 0)  -->
<svg version="1.1" id="Capa_1" xmlns="http://www.w3.org/2000/svg" xmlns:xlink="http://www.w3.org/1999/xlink" x="0px" y="0px"
	 viewBox="0 0 512 512" style="enable-background:new 0 0 512 512;" xml:space="preserve">
<circle style="fill:#7600FF;" cx="256" cy="256" r="256"/>
<path style="fill:#5900BF;" d="M512,256c0-16.806-1.638-33.227-4.729-49.129L338.9,38.5L81.739,68.489l100.494,100.494l-12.165,27.8
	l73.813,73.813l-142.551,93.12l148.202,148.202c2.15,0.054,4.306,0.082,6.468,0.082C397.385,512,512,397.385,512,256z"/>
<path style="fill:#FFF566;" d="M180.9,68.489V47.011h-72.778c-9.273,6.573-18.08,13.758-26.383,21.479H180.9V68.489z"/>
<path style="fill:#00FFCE;" d="M191.767,205.282c-16.542,0-30-12.277-30-27.369v-15.197h20v15.197c0,3.994,4.58,7.369,10,7.369
	s10-3.375,10-7.369v-58.981h20v58.981C221.767,193.004,208.309,205.282,191.767,205.282z"/>
<path style="fill:#05E0B6;" d="M318.9,233.787c-16.542,0-30-12.277-30-27.369v-92.189h20v92.189c0,3.994,4.58,7.369,10,7.369
	s10-3.375,10-7.369V191.22h20v15.198C348.9,221.509,335.442,233.787,318.9,233.787z"/>
<rect x="244.4" y="103.05" style="fill:#00FFCE;" width="20" height="28.3"/>
<rect x="255.57" y="103.05" style="fill:#05E0B6;" width="8.832" height="28.3"/>
<rect x="244.4" y="148.83" style="fill:#00FFCE;" width="20" height="67.37"/>
<rect x="255.57" y="148.83" style="fill:#05E0B6;" width="8.832" height="67.37"/>
<path style="fill:#99FFEB;" d="M189.746,503.325C210.88,508.972,233.085,512,256,512s45.12-3.028,66.254-8.675V358.602H189.746
	V503.325z"/>
<path style="fill:#00FFCE;" d="M255.571,358.602v153.395c0.143,0,0.285,0.003,0.429,0.003c22.915,0,45.12-3.028,66.254-8.675
	V358.602H255.571z"/>
<rect x="125" y="250" style="fill:#99FFEB;" width="260.67" height="102.33"/>
<rect x="255.57" y="250" style="fill:#00FFCE;" width="130.09" height="102.33"/>
<path style="fill:#FFFFFF;" d="M334,250c0,43.078-34.922,78-78,78s-78-34.922-78-78H73v44.667C73,348.975,117.025,393,171.333,393
	h169.333C394.975,393,439,348.975,439,294.667V250H334z"/>
<path style="fill:#E4F2F6;" d="M334,250c0,43.078-34.922,78-78,78c-0.144,0-0.285-0.01-0.429-0.011V393h85.095
	C394.975,393,439,348.975,439,294.667V250H334z"/>
<rect x="173.1" y="38.5" style="fill:#FFE13C;" width="165.8" height="46.26"/>
<rect x="255.57" y="38.5" style="fill:#FFBA31;" width="83.33" height="46.26"/>
<g>
</g>
<g>
</g>
<g>
</g>
<g>
</g>
<g>
</g>
<g>
</g>
<g>
</g>
<g>
</g>
<g>
</g>
<g>
</g>
<g>
</g>
<g>
</g>
<g>
</g>
<g>
</g>
<g>
</g>
</svg>
