<?xml version="1.0" encoding="iso-8859-1"?>
<!-- Generator: Adobe Illustrator 19.0.0, SVG Export Plug-In . SVG Version: 6.00 Build 0)  -->
<svg version="1.1" id="Capa_1" xmlns="http://www.w3.org/2000/svg" xmlns:xlink="http://www.w3.org/1999/xlink" x="0px" y="0px"
	 viewBox="0 0 512.001 512.001" style="enable-background:new 0 0 512.001 512.001;" xml:space="preserve">
<circle style="fill:#FFE13C;" cx="256" cy="256" r="256"/>
<path style="fill:#FFBA31;" d="M414.283,54.788L97.667,205.5l277.245,277.245C456.409,439.917,512,354.457,512,256
	c0-59.754-20.475-114.724-54.788-158.284L414.283,54.788C414.283,54.789,414.283,54.788,414.283,54.788z"/>
<path style="fill:#FF0098;" d="M256,0C196.246,0,141.276,20.475,97.717,54.788c30.032,81.111,89.64,136.381,158.283,136.381
	s128.252-55.27,158.283-136.381C370.724,20.475,315.754,0,256,0z"/>
<path style="fill:#DF008B;" d="M256,0c-0.143,0-0.285,0.004-0.429,0.004v191.159c0.143,0,0.285,0.005,0.429,0.005
	c68.644,0,128.252-55.27,158.283-136.381C370.724,20.475,315.754,0,256,0z"/>
<path style="fill:#7600FF;" d="M442.074,307.366l-104.159-21.324c-12.696-2.599-21.813-13.771-21.813-26.73v-74.356H195.897v74.356
	c0,12.959-9.116,24.131-21.813,26.73L69.926,307.366c-21.796,4.462-40.168,21.426-52.177,42.482C55.183,444.805,147.744,512,256,512
	s200.817-67.195,238.251-162.152C482.242,328.792,463.87,311.828,442.074,307.366z"/>
<g>
	<path style="fill:#5900BF;" d="M442.074,307.366l-104.159-21.324c-12.696-2.599-21.813-13.771-21.813-26.73v-74.356h-60.532
		v327.041c0.143,0,0.285,0.004,0.429,0.004c108.256,0,200.817-67.195,238.251-162.152
		C482.242,328.792,463.87,311.828,442.074,307.366z"/>
	<rect x="97.67" y="167.5" style="fill:#5900BF;" width="253.33" height="38"/>
</g>
<rect x="255.57" y="167.5" style="fill:#3B0080;" width="95.43" height="38"/>
<path style="fill:#DF008B;" d="M398.089,43.034C357.436,15.856,308.572,0,256,0S154.564,15.856,113.911,43.034l84.803,123.084
	c6.3,11.727,8.037,25.371,4.875,38.302l-99.978,257.291C146.189,493.304,198.909,512,256,512s109.811-18.696,152.389-50.289
	L308.411,204.42c-3.162-12.931-1.425-26.575,4.875-38.302L398.089,43.034z"/>
<path style="fill:#C90085;" d="M408.389,461.711L308.411,204.42c-3.162-12.931-1.425-26.575,4.875-38.302L398.09,43.034
	C357.436,15.856,308.572,0,256,0c-0.143,0-0.285,0.004-0.429,0.004v511.992c0.143,0,0.285,0.004,0.429,0.004
	C313.091,512,365.811,493.304,408.389,461.711z"/>
<path style="fill:#5900BF;" d="M256,269c-65.888,0-117.5-36.238-117.5-82.5S190.112,104,256,104s117.5,36.238,117.5,82.5
	S321.888,269,256,269z M256,142c-46.851,0-79.5,23.452-79.5,44.5S209.149,231,256,231s79.5-23.452,79.5-44.5S302.852,142,256,142z"
	/>
<path style="fill:#3B0080;" d="M256,104c-0.143,0-0.285,0.003-0.429,0.004v38.003c0.144,0,0.284-0.007,0.429-0.007
	c46.851,0,79.5,23.452,79.5,44.5S302.852,231,256,231c-0.144,0-0.285-0.006-0.429-0.007v38.003c0.143,0,0.285,0.004,0.429,0.004
	c65.888,0,117.5-36.238,117.5-82.5S321.888,104,256,104z"/>
<g>
</g>
<g>
</g>
<g>
</g>
<g>
</g>
<g>
</g>
<g>
</g>
<g>
</g>
<g>
</g>
<g>
</g>
<g>
</g>
<g>
</g>
<g>
</g>
<g>
</g>
<g>
</g>
<g>
</g>
</svg>
