<?xml version="1.0" encoding="iso-8859-1"?>
<!-- Generator: Adobe Illustrator 19.0.0, SVG Export Plug-In . SVG Version: 6.00 Build 0)  -->
<svg version="1.1" id="Capa_1" xmlns="http://www.w3.org/2000/svg" xmlns:xlink="http://www.w3.org/1999/xlink" x="0px" y="0px"
	 viewBox="0 0 512 512" style="enable-background:new 0 0 512 512;" xml:space="preserve">
<circle style="fill:#FF0098;" cx="256" cy="256" r="256"/>
<path style="fill:#DF008B;" d="M264.038,511.862C401.702,507.614,512,394.694,512,256c0-17.363-1.738-34.319-5.032-50.712
	L306.712,5.032L172.22,109.8l-55.63-55.629l16.307,54.171l95.531,95.531l-55.057,15.519l-61.625-61.625l19.943,73.374l55.227,55.227
	l-61.196,24.821l-13.05-13.05l4.823,16.386l-13.729,5.568l57.76,57.76l-19.633,12.564L264.038,511.862z"/>
<path style="fill:#FFFFFF;" d="M321.741,234.433l-15.029-3.292v52.546l57.506,27.487c1.809-7.087,7.17-12.938,12.009-18.263
	c2.163-2.38,4.422-4.561,6.744-6.643L321.741,234.433z"/>
<path style="fill:#E8EEEF;" d="M306.712,255.905v27.782l57.506,27.487c1.809-7.087,7.17-12.938,12.009-18.263
	c2.163-2.38,4.422-4.561,6.744-6.643l-38.841-32.881L306.712,255.905z"/>
<path style="fill:#FFE13C;" d="M256,0c-11.103,0-22.04,0.709-32.77,2.08v289.894c0,27.295-21.18,50.467-48.45,51.619
	c-0.877,0.037-1.759,0.056-2.646,0.056c-28.452,0-52.386-19.294-59.464-45.509c-1.392,6.581-2.138,13.4-2.138,20.394
	c0,54.174,43.917,98.09,98.09,98.09c54.174,0,98.09-43.917,98.09-98.089v-0.001V5.032C290.319,1.738,273.363,0,256,0z"/>
<g>
	<path style="fill:#FFBA31;" d="M306.712,253.387H223.23v38.586c0,27.295-21.18,50.467-48.45,51.619
		c-0.877,0.037-1.759,0.056-2.646,0.056c-28.452,0-52.386-19.294-59.464-45.509c-1.392,6.581-2.138,13.4-2.138,20.394
		c0,54.174,43.917,98.09,98.09,98.09c54.174,0,98.09-43.917,98.09-98.089v-0.001L306.712,253.387L306.712,253.387z"/>
	<path style="fill:#FFBA31;" d="M256,0c-17.292,0-34.18,1.726-50.511,4.994V152.54c0,23.144-17.958,42.79-41.081,43.767
		c-0.744,0.031-1.492,0.047-2.243,0.047c-24.124,0-44.418-16.359-50.419-38.586c-1.18,5.58-1.813,11.362-1.813,17.292
		c0,45.933,37.237,83.169,83.169,83.169c45.933,0,83.169-37.236,83.169-83.168v-0.001V0.797C269.583,0.273,262.823,0,256,0z"/>
</g>
<path style="fill:#FFE13C;" d="M182.885,10.613v39.861c0,16.367-12.7,30.261-29.052,30.952c-0.526,0.022-1.055,0.033-1.586,0.033
	c-17.06,0-31.412-11.569-35.656-27.288c-0.835,3.946-1.282,8.035-1.282,12.229c0,32.484,26.333,58.817,58.817,58.817
	s58.817-26.333,58.817-58.816V66.4V1.045C215.707,2.584,198.966,5.829,182.885,10.613z"/>
<path style="fill:#D5D3E0;" d="M358.631,199.682c-0.318-0.297-0.214-0.841-0.311-1.263L103.764,320.093l217.977-47.753
	l61.674-52.211C373.956,213.966,373.956,213.966,358.631,199.682z"/>
<polygon style="fill:#C0BECC;" points="243.589,253.258 103.764,320.093 321.741,272.34 344.13,253.387 "/>
<path style="fill:#5900BF;" d="M345.834,184.07c0-28.853,23.474-52.327,52.327-52.327s52.327,23.473,52.327,52.327
	s-23.474,52.327-52.327,52.327S345.834,212.923,345.834,184.07z M427.124,184.07c0-15.971-12.993-28.964-28.964-28.964
	c-15.971,0-28.964,12.993-28.964,28.964s12.993,28.964,28.964,28.964C414.131,213.034,427.124,200.041,427.124,184.07z"/>
<path style="fill:#3B0080;" d="M345.834,322.704c0-28.853,23.474-52.327,52.327-52.327s52.327,23.473,52.327,52.327
	c0,28.853-23.474,52.327-52.327,52.327C369.308,375.03,345.834,351.557,345.834,322.704z M427.124,322.704
	c0-15.971-12.993-28.964-28.964-28.964c-15.971,0-28.964,12.993-28.964,28.964c0,15.971,12.993,28.964,28.964,28.964
	C414.131,351.667,427.124,338.674,427.124,322.704z"/>
<circle style="fill:#FFFFFF;" cx="304.13" cy="253.39" r="12.743"/>
<path style="fill:#D5ECF2;" d="M316.87,253.387c0,7.038-5.705,12.743-12.743,12.743c-7.038,0-12.743-5.705-12.743-12.743
	L316.87,253.387L316.87,253.387z"/>
<g>
</g>
<g>
</g>
<g>
</g>
<g>
</g>
<g>
</g>
<g>
</g>
<g>
</g>
<g>
</g>
<g>
</g>
<g>
</g>
<g>
</g>
<g>
</g>
<g>
</g>
<g>
</g>
<g>
</g>
</svg>
