<?xml version="1.0" encoding="iso-8859-1"?>
<!-- Generator: Adobe Illustrator 19.0.0, SVG Export Plug-In . SVG Version: 6.00 Build 0)  -->
<svg version="1.1" id="Capa_1" xmlns="http://www.w3.org/2000/svg" xmlns:xlink="http://www.w3.org/1999/xlink" x="0px" y="0px"
	 viewBox="0 0 512 512" style="enable-background:new 0 0 512 512;" xml:space="preserve">
<circle style="fill:#FF0098;" cx="256" cy="256" r="256"/>
<path style="fill:#DF008B;" d="M508.27,299.694L381.24,172.665l-12.014,20.554L262.315,86.307l-73.41,82.098L91.418,374.266
	l136.155,136.155C236.908,511.452,246.39,512,256,512C382.487,512,487.534,420.262,508.27,299.694z"/>
<path style="fill:#FFE13C;" d="M166.24,269.385c0-46.673,47.267-123.992,88.926-183.078H138.001
	c-41.658,59.087-88.924,136.406-88.924,183.078c0,83.44,67.641,151.081,151.081,151.081c20.774,0,40.567-4.195,58.582-11.781
	C204.395,385.804,166.24,332.051,166.24,269.385z"/>
<path style="fill:#FFBA31;" d="M166.24,269.385c0-4.25,0.396-8.758,1.141-13.48H50.217c-0.744,4.722-1.141,9.23-1.141,13.48
	c0,83.44,67.641,151.082,151.081,151.082c20.774,0,40.567-4.195,58.582-11.781C204.395,385.804,166.24,332.051,166.24,269.385z"/>
<path style="fill:#FFF566;" d="M166.24,269.385c0-46.673,47.267-123.992,88.926-183.078h-63.26
	c-41.656,59.083-88.922,136.405-88.922,183.078c0,74.238,53.545,135.967,124.122,148.68c11.004-1.982,21.595-5.153,31.634-9.38
	C204.395,385.804,166.24,332.051,166.24,269.385z"/>
<path style="fill:#FFE13C;" d="M166.24,269.385c0-4.25,0.396-8.758,1.141-13.48h-63.256c-0.744,4.722-1.141,9.23-1.141,13.48
	c0,74.238,53.545,135.967,124.122,148.68c11.004-1.982,21.596-5.153,31.634-9.379C204.395,385.804,166.24,332.051,166.24,269.385z"
	/>
<path style="fill:#FFBA31;" d="M262.315,86.307h-7.148c-18.818,26.69-38.767,57.098-55,86.724
	c19.704,35.959,33.926,70.764,33.926,96.355c0,62.67-38.159,116.425-92.508,139.305c18.013,7.583,37.803,11.777,58.573,11.777
	c83.44,0,151.081-67.641,151.081-151.081C351.239,222.713,303.973,145.393,262.315,86.307z"/>
<path style="fill:#FFA733;" d="M232.948,255.905c0.744,4.721,1.145,9.23,1.145,13.48c0,62.67-38.159,116.425-92.508,139.305
	c18.013,7.583,37.803,11.777,58.573,11.777c83.44,0,151.081-67.642,151.081-151.082c0-4.25-0.396-8.758-1.141-13.48L232.948,255.905
	L232.948,255.905z"/>
<path style="fill:#FFE13C;" d="M227.871,126.732c-9.792,15.223-19.248,30.865-27.705,46.299
	c19.704,35.959,33.926,70.764,33.926,96.355c0,62.67-38.159,116.425-92.508,139.305c8.839,3.721,18.109,6.62,27.71,8.614
	c68.632-14.252,120.207-75.061,120.207-147.919C289.501,232.811,260.476,177.421,227.871,126.732z"/>
<path style="fill:#FFBA31;" d="M232.948,255.905c0.744,4.721,1.145,9.23,1.145,13.48c0,62.67-38.159,116.425-92.508,139.305
	c8.839,3.721,18.109,6.621,27.71,8.614c68.632-14.252,120.207-75.061,120.207-147.919c0-4.249-0.407-8.761-1.151-13.48
	L232.948,255.905L232.948,255.905z"/>
<path style="fill:#5900BF;" d="M311.62,305.333c0-33.822,34.252-89.851,64.441-132.668h-84.905
	c-30.188,42.817-64.439,98.847-64.439,132.668c0,60.465,49.017,109.482,109.482,109.482c15.054,0,29.397-3.04,42.452-8.537
	C339.269,389.697,311.62,350.744,311.62,305.333z"/>
<path style="fill:#3B0080;" d="M311.62,305.333c0-13.638,5.574-30.89,14.201-49.428h-84.903
	c-8.627,18.539-14.201,35.79-14.201,49.428c0,60.465,49.017,109.482,109.481,109.482c15.054,0,29.397-3.04,42.452-8.537
	C339.269,389.696,311.62,350.744,311.62,305.333z"/>
<path style="fill:#7600FF;" d="M311.62,305.333c0-33.822,34.252-89.851,64.441-132.668h-45.842
	c-30.186,42.815-64.438,98.846-64.438,132.668c0,53.797,38.802,98.529,89.945,107.742c7.974-1.436,15.649-3.734,22.924-6.797
	C339.269,389.697,311.62,350.744,311.62,305.333z"/>
<path style="fill:#5900BF;" d="M311.62,305.333c0-13.638,5.574-30.89,14.201-49.428h-45.84
	c-8.626,18.538-14.201,35.79-14.201,49.428c0,53.797,38.802,98.529,89.945,107.742c7.974-1.437,15.649-3.734,22.924-6.797
	C339.269,389.696,311.62,350.744,311.62,305.333z"/>
<path style="fill:#7600FF;" d="M381.241,172.665h-5.18c-13.637,19.341-28.093,41.376-39.856,62.845
	c14.278,26.058,24.585,51.279,24.585,69.824c0,45.414-27.652,84.368-67.036,100.948c13.053,5.495,27.394,8.534,42.445,8.534
	c60.465,0,109.482-49.017,109.482-109.482C445.68,271.512,411.428,215.482,381.241,172.665z"/>
<path style="fill:#5900BF;" d="M346.581,255.905c8.629,18.538,14.208,35.79,14.208,49.428c0,45.414-27.652,84.368-67.036,100.948
	c13.053,5.495,27.394,8.534,42.445,8.534c60.465,0,109.482-49.017,109.482-109.482c0-13.638-5.575-30.89-14.202-49.428H346.581z"/>
<path style="fill:#8D6EFF;" d="M356.281,201.959c-7.096,11.031-13.948,22.366-20.077,33.55
	c14.278,26.058,24.585,51.279,24.585,69.824c0,45.414-27.652,84.368-67.036,100.948c6.405,2.697,13.123,4.797,20.08,6.242
	c49.734-10.328,87.108-54.393,87.108-107.19C400.941,278.829,379.909,238.691,356.281,201.959z"/>
<path style="fill:#7600FF;" d="M346.581,255.905c8.629,18.538,14.208,35.79,14.208,49.428c0,45.414-27.652,84.368-67.036,100.948
	c6.406,2.696,13.123,4.797,20.08,6.242c49.734-10.328,87.108-54.393,87.108-107.19c0-13.638-5.578-30.891-14.204-49.428H346.581z"/>
<g>
</g>
<g>
</g>
<g>
</g>
<g>
</g>
<g>
</g>
<g>
</g>
<g>
</g>
<g>
</g>
<g>
</g>
<g>
</g>
<g>
</g>
<g>
</g>
<g>
</g>
<g>
</g>
<g>
</g>
</svg>
