<?xml version="1.0" encoding="iso-8859-1"?>
<!-- Generator: Adobe Illustrator 19.0.0, SVG Export Plug-In . SVG Version: 6.00 Build 0)  -->
<svg version="1.1" id="Capa_1" xmlns="http://www.w3.org/2000/svg" xmlns:xlink="http://www.w3.org/1999/xlink" x="0px" y="0px"
	 viewBox="0 0 512 512" style="enable-background:new 0 0 512 512;" xml:space="preserve">
<circle style="fill:#00FFCE;" cx="256" cy="256" r="256"/>
<path style="fill:#05E0B6;" d="M293.372,509.276c119.988-17.553,212.935-118.331,218.361-241.852l-179.95-179.95l-158.782,208.75
	l108.037,108.037l-52.316,40.366L293.372,509.276z"/>
<path style="fill:#DD2A55;" d="M256,456.333L256,456.333c-20.803,0-37.667-16.864-37.667-37.667V300.5h75.333v118.167
	C293.667,439.469,276.803,456.333,256,456.333z"/>
<path style="fill:#C90085;" d="M255.571,300.5v155.822c0.144,0.002,0.285,0.011,0.429,0.011l0,0
	c20.803,0,37.667-16.864,37.667-37.667V300.5H255.571z"/>
<ellipse style="fill:#FF4B6E;" cx="256" cy="195.5" rx="120.45" ry="138.99"/>
<path style="fill:#DF008B;" d="M256,56.514c-0.143,0-0.285,0.006-0.429,0.006v277.96c0.143,0.001,0.285,0.006,0.429,0.006
	c66.525,0,120.454-62.226,120.454-138.986S322.525,56.514,256,56.514z"/>
<ellipse style="fill:#FFFFFF;" cx="256" cy="195.5" rx="91" ry="105"/>
<g>
	<path style="fill:#D5ECF2;" d="M256,90.5c-0.143,0-0.285,0.005-0.429,0.006v209.987c0.143,0.001,0.285,0.006,0.429,0.006
		c50.258,0,91-47.01,91-105C347,137.51,306.258,90.5,256,90.5z"/>
	
		<rect x="218.88" y="113.329" transform="matrix(-0.7071 -0.7071 0.7071 -0.7071 277.711 425.0193)" style="fill:#D5ECF2;" width="16" height="83.329"/>
</g>
<polygon style="fill:#C6DFE5;" points="255.571,124.766 255.571,137.623 262,131.194 "/>
<rect x="241.993" y="111.563" transform="matrix(-0.7071 -0.7071 0.7071 -0.7071 300.8166 480.8366)" style="fill:#D5ECF2;" width="16" height="133.109"/>
<polygon style="fill:#C6DFE5;" points="291.403,125.403 255.571,161.235 255.571,183.862 302.717,136.717 "/>
<g>
</g>
<g>
</g>
<g>
</g>
<g>
</g>
<g>
</g>
<g>
</g>
<g>
</g>
<g>
</g>
<g>
</g>
<g>
</g>
<g>
</g>
<g>
</g>
<g>
</g>
<g>
</g>
<g>
</g>
</svg>
