<?xml version="1.0" encoding="iso-8859-1"?>
<!-- Generator: Adobe Illustrator 19.0.0, SVG Export Plug-In . SVG Version: 6.00 Build 0)  -->
<svg version="1.1" id="Capa_1" xmlns="http://www.w3.org/2000/svg" xmlns:xlink="http://www.w3.org/1999/xlink" x="0px" y="0px"
	 viewBox="0 0 512 512" style="enable-background:new 0 0 512 512;" xml:space="preserve">
<circle style="fill:#FFE13C;" cx="256" cy="256" r="256"/>
<path style="fill:#FFBA31;" d="M512,256c0-1.427-0.031-2.847-0.054-4.269L398.643,138.428L139.092,411.092l100.361,100.361
	C244.925,511.802,250.439,512,256,512C397.385,512,512,397.385,512,256z"/>
<rect x="172.204" y="200.806" transform="matrix(-0.7071 -0.7071 0.7071 -0.7071 118.8749 674.85)" style="fill:#5900BF;" width="53.999" height="223.998"/>
<rect x="194.564" y="210.069" transform="matrix(0.7071 0.7071 -0.7071 0.7071 288.7932 -53.0717)" style="fill:#3B0080;" width="27.791" height="223.998"/>
<rect x="251.426" y="98.066" transform="matrix(-0.7071 -0.7071 0.7071 -0.7071 407.9223 555.0974)" style="fill:#7600FF;" width="134.999" height="189.998"/>
<rect x="308.374" y="121.646" transform="matrix(-0.7071 -0.7071 0.7071 -0.7071 431.5252 612.0347)" style="fill:#5900BF;" width="68.289" height="189.998"/>
<g>
	
		<rect x="271.149" y="78.662" transform="matrix(-0.7071 -0.7071 0.7071 -0.7071 447.7228 369.9565)" style="fill:#FF4B6E;" width="58.666" height="27.18"/>
	
		<rect x="188.781" y="161.022" transform="matrix(-0.7071 -0.7071 0.7071 -0.7071 248.8751 452.3111)" style="fill:#FF4B6E;" width="58.666" height="27.18"/>
	
		<rect x="229.972" y="119.842" transform="matrix(-0.7071 -0.7071 0.7071 -0.7071 348.311 411.1388)" style="fill:#FF4B6E;" width="58.666" height="27.18"/>
</g>
<g>
	
		<rect x="389.709" y="197.22" transform="matrix(-0.7071 -0.7071 0.7071 -0.7071 566.2845 656.1815)" style="fill:#DF008B;" width="58.666" height="27.18"/>
	
		<rect x="307.341" y="279.59" transform="matrix(-0.7071 -0.7071 0.7071 -0.7071 367.4298 738.5532)" style="fill:#DF008B;" width="58.666" height="27.18"/>
	
		<rect x="348.525" y="238.392" transform="matrix(-0.7071 -0.7071 0.7071 -0.7071 466.8657 697.3467)" style="fill:#DF008B;" width="58.666" height="27.18"/>
	
		<rect x="363.16" y="154.083" transform="matrix(-0.7071 -0.7071 0.7071 -0.7071 523.1552 552.0429)" style="fill:#DF008B;" width="25.5" height="27.18"/>
	
		<rect x="280.789" y="236.446" transform="matrix(-0.7071 -0.7071 0.7071 -0.7071 324.3004 634.4005)" style="fill:#DF008B;" width="25.5" height="27.18"/>
	
		<rect x="321.973" y="195.273" transform="matrix(-0.7071 -0.7071 0.7071 -0.7071 423.7193 593.2352)" style="fill:#DF008B;" width="25.5" height="27.18"/>
</g>
<g>
	
		<rect x="331.57" y="122.498" transform="matrix(-0.7071 -0.7071 0.7071 -0.7071 491.5614 475.7872)" style="fill:#FF4B6E;" width="25.5" height="27.18"/>
	
		<rect x="249.209" y="204.865" transform="matrix(-0.7071 -0.7071 0.7071 -0.7071 292.7208 558.1589)" style="fill:#FF4B6E;" width="25.5" height="27.18"/>
	
		<rect x="290.386" y="163.685" transform="matrix(-0.7071 -0.7071 0.7071 -0.7071 392.1325 516.9766)" style="fill:#FF4B6E;" width="25.5" height="27.18"/>
</g>
<g>
</g>
<g>
</g>
<g>
</g>
<g>
</g>
<g>
</g>
<g>
</g>
<g>
</g>
<g>
</g>
<g>
</g>
<g>
</g>
<g>
</g>
<g>
</g>
<g>
</g>
<g>
</g>
<g>
</g>
</svg>
