<?xml version="1.0" encoding="iso-8859-1"?>
<!-- Generator: Adobe Illustrator 19.0.0, SVG Export Plug-In . SVG Version: 6.00 Build 0)  -->
<svg version="1.1" id="Capa_1" xmlns="http://www.w3.org/2000/svg" xmlns:xlink="http://www.w3.org/1999/xlink" x="0px" y="0px"
	 viewBox="0 0 512 512" style="enable-background:new 0 0 512 512;" xml:space="preserve">
<circle style="fill:#7600FF;" cx="256" cy="256" r="256"/>
<path style="fill:#5900BF;" d="M271.142,511.542C405.476,503.704,512,392.3,512,256c0-6.542-0.248-13.026-0.73-19.444L350.118,76
	l-188.237,35l136.542,136.55L193.972,434.625L271.142,511.542z"/>
<polygon style="fill:#FFE13C;" points="317.987,369 194.013,369 164.013,77 347.987,77 "/>
<polygon style="fill:#FFBA31;" points="347.987,77 255.571,77 255.571,369 317.987,369 "/>
<rect x="161.88" y="76" style="fill:#FFF566;" width="188.24" height="35"/>
<rect x="255.57" y="76" style="fill:#FFE13C;" width="94.55" height="35"/>
<rect x="193.97" y="368.62" style="fill:#FFFFFF;" width="124.06" height="66"/>
<rect x="255.57" y="368.62" style="fill:#E4F2F6;" width="62.45" height="66"/>
<ellipse style="fill:#FF4B6E;" cx="256" cy="238.75" rx="56.75" ry="55.25"/>
<path style="fill:#DF008B;" d="M256,183.5c-0.144,0-0.285,0.01-0.429,0.011V293.99c0.144,0,0.285,0.01,0.429,0.01
	c31.342,0,56.75-24.736,56.75-55.25S287.342,183.5,256,183.5z"/>
<g>
</g>
<g>
</g>
<g>
</g>
<g>
</g>
<g>
</g>
<g>
</g>
<g>
</g>
<g>
</g>
<g>
</g>
<g>
</g>
<g>
</g>
<g>
</g>
<g>
</g>
<g>
</g>
<g>
</g>
</svg>
