<?xml version="1.0" encoding="iso-8859-1"?>
<!-- Generator: Adobe Illustrator 19.0.0, SVG Export Plug-In . SVG Version: 6.00 Build 0)  -->
<svg version="1.1" id="Capa_1" xmlns="http://www.w3.org/2000/svg" xmlns:xlink="http://www.w3.org/1999/xlink" x="0px" y="0px"
	 viewBox="0 0 512 512" style="enable-background:new 0 0 512 512;" xml:space="preserve">
<circle style="fill:#FF0098;" cx="256" cy="256" r="256"/>
<path style="fill:#DF008B;" d="M273.077,511.42C406.497,502.63,512,391.645,512,256c0-2.959-0.069-5.901-0.168-8.835L379,114.333
	L175,321.667l90.869,90.869L196.657,435L273.077,511.42z"/>
<path style="fill:#5900BF;" d="M292.25,446h-72.5c-16.43,0-29.75-13.32-29.75-29.75V302.333h132V416.25
	C322,432.68,308.68,446,292.25,446z"/>
<path style="fill:#3B0080;" d="M255.571,302.333V446h36.679c16.43,0,29.75-13.32,29.75-29.75V302.333H255.571z"/>
<polygon style="fill:#FFFFFF;" points="322.921,307 189.079,307 133,114.333 379,114.333 "/>
<polygon style="fill:#E4F2F6;" points="379,114.333 255.571,114.333 255.571,307 322.921,307 "/>
<rect x="175" y="289" style="fill:#7600FF;" width="162" height="32.667"/>
<rect x="255.57" y="289" style="fill:#5900BF;" width="81.43" height="32.667"/>
<rect x="189.25" y="114.33" style="fill:#E4F2F6;" width="32.5" height="132.67"/>
<rect x="294.83" y="114.33" style="fill:#C3E0E2;" width="32.5" height="102.67"/>
<rect x="242.04" y="114.33" style="fill:#E4F2F6;" width="32.5" height="62"/>
<rect x="255.57" y="114.33" style="fill:#C3E0E2;" width="18.97" height="62"/>
<g>
</g>
<g>
</g>
<g>
</g>
<g>
</g>
<g>
</g>
<g>
</g>
<g>
</g>
<g>
</g>
<g>
</g>
<g>
</g>
<g>
</g>
<g>
</g>
<g>
</g>
<g>
</g>
<g>
</g>
</svg>
