<?xml version="1.0" encoding="iso-8859-1"?>
<!-- Generator: Adobe Illustrator 19.0.0, SVG Export Plug-In . SVG Version: 6.00 Build 0)  -->
<svg version="1.1" id="Capa_1" xmlns="http://www.w3.org/2000/svg" xmlns:xlink="http://www.w3.org/1999/xlink" x="0px" y="0px"
	 viewBox="0 0 512 512" style="enable-background:new 0 0 512 512;" xml:space="preserve">
<circle style="fill:#7600FF;" cx="256" cy="256" r="256"/>
<path style="fill:#5900BF;" d="M512,256c0-9.392-0.521-18.661-1.506-27.791L407.646,125.362L98,159.5l144.197,144.197L98,387.5
	l121.963,121.963C231.739,511.122,243.766,512,256,512c53.891,0,103.881-16.666,145.129-45.105l2.133-2.133l0.386,0.386
	C469.199,418.789,512,342.395,512,256z"/>
<path style="fill:#00FFCE;" d="M414,159.5H98v-12.94c0-21.296,17.264-38.56,38.56-38.56h238.88c21.296,0,38.56,17.264,38.56,38.56
	V159.5z"/>
<path style="fill:#05E0B6;" d="M414,146.56c0-21.296-17.264-38.56-38.56-38.56H255.571v51.5H414V146.56z"/>
<path style="fill:#FFFFFF;" d="M126.75,237v-11.022c0-12.828,10.4-23.228,23.228-23.228h116.019
	c15.765,0,29.849-9.853,35.254-24.662l3.499-9.588l19.831,19.133c10.051,9.698,23.474,15.117,37.441,15.117l0,0
	c12.828,0,23.228,10.4,23.228,23.228V237H126.75z"/>
<path style="fill:#E8E6E6;" d="M385.25,225.978c0-12.828-10.399-23.228-23.228-23.228l0,0c-13.967,0-27.389-5.419-37.441-15.117
	L304.75,168.5l-3.499,9.588c-5.405,14.81-19.489,24.662-35.254,24.662h-10.425V237H385.25V225.978z"/>
<rect x="113.48" y="232" style="fill:#05E0B6;" width="285.05" height="42"/>
<rect x="255.57" y="232" style="fill:#06B795;" width="142.95" height="42"/>
<rect x="98" y="254" style="fill:#00FFCE;" width="316" height="133.5"/>
<rect x="255.57" y="254" style="fill:#05E0B6;" width="158.43" height="133.5"/>
<g>
</g>
<g>
</g>
<g>
</g>
<g>
</g>
<g>
</g>
<g>
</g>
<g>
</g>
<g>
</g>
<g>
</g>
<g>
</g>
<g>
</g>
<g>
</g>
<g>
</g>
<g>
</g>
<g>
</g>
</svg>
