<?xml version="1.0" encoding="iso-8859-1"?>
<!-- Generator: Adobe Illustrator 19.0.0, SVG Export Plug-In . SVG Version: 6.00 Build 0)  -->
<svg version="1.1" id="Capa_1" xmlns="http://www.w3.org/2000/svg" xmlns:xlink="http://www.w3.org/1999/xlink" x="0px" y="0px"
	 viewBox="0 0 512 512" style="enable-background:new 0 0 512 512;" xml:space="preserve">
<circle style="fill:#00FFCE;" cx="256" cy="256" r="256"/>
<path style="fill:#05E0B6;" d="M508.326,299.358L370.335,161.376L121.466,390.534l121.117,121.117
	c4.443,0.23,8.916,0.349,13.417,0.349C382.604,512,487.727,420.091,508.326,299.358z"/>
<polygon style="fill:#FFE13C;" points="339.12,358.919 153.081,172.88 260.076,51.105 460.895,251.924 "/>
<polygon style="fill:#FFBA31;" points="460.895,251.924 359.628,150.657 245.243,265.042 339.12,358.919 "/>
<path style="fill:#7600FF;" d="M121.466,390.535L121.466,390.535c-16.894-16.894-16-44.547,1.95-60.314l116.691-102.503
	l44.177,44.177L181.78,388.585C166.012,406.534,138.359,407.428,121.466,390.535z"/>
<g>
	<path style="fill:#5900BF;" d="M120.631,389.655c0.277,0.294,0.547,0.592,0.834,0.88l0,0c16.894,16.894,44.547,16,60.314-1.95
		l102.503-116.691l-22.946-22.946L120.631,389.655z"/>
	
		<rect x="105.647" y="229.366" transform="matrix(-0.7071 -0.7071 0.7071 -0.7071 240.6517 624.4116)" style="fill:#5900BF;" width="287.997" height="65.999"/>
</g>
<rect x="227.521" y="279.853" transform="matrix(0.7071 0.7071 -0.7071 0.7071 309.1247 -120.588)" style="fill:#3B0080;" width="145.209" height="65.999"/>
<rect x="241.036" y="71.26" transform="matrix(-0.7071 -0.7071 0.7071 -0.7071 349.666 398.1161)" style="fill:#FFBA31;" width="32.5" height="110.759"/>
<rect x="334.111" y="159.823" transform="matrix(-0.7071 -0.7071 0.7071 -0.7071 453.6281 596.5358)" style="fill:#FFA733;" width="32.5" height="88.991"/>
<rect x="301.852" y="121.461" transform="matrix(-0.7071 -0.7071 0.7071 -0.7071 436.1147 483.0557)" style="fill:#FFBA31;" width="32.5" height="59.489"/>
<rect x="387.225" y="206.842" transform="matrix(-0.7071 -0.7071 0.7071 -0.7071 521.4816 689.1788)" style="fill:#FFA733;" width="32.5" height="59.489"/>
<g>
</g>
<g>
</g>
<g>
</g>
<g>
</g>
<g>
</g>
<g>
</g>
<g>
</g>
<g>
</g>
<g>
</g>
<g>
</g>
<g>
</g>
<g>
</g>
<g>
</g>
<g>
</g>
<g>
</g>
</svg>
