<?xml version="1.0" encoding="iso-8859-1"?>
<!-- Generator: Adobe Illustrator 19.0.0, SVG Export Plug-In . SVG Version: 6.00 Build 0)  -->
<svg version="1.1" id="Capa_1" xmlns="http://www.w3.org/2000/svg" xmlns:xlink="http://www.w3.org/1999/xlink" x="0px" y="0px"
	 viewBox="0 0 512 512" style="enable-background:new 0 0 512 512;" xml:space="preserve">
<circle style="fill:#00FFCE;" cx="256" cy="256" r="256"/>
<path style="fill:#05E0B6;" d="M510.026,287.884L277.235,55.093l-22.217,151.04l-67.018,4.2l49.152,49.152l-81.485,172.182
	l79.485,79.485C242.029,511.706,248.98,512,256,512C386.587,512,494.329,414.221,510.026,287.884z"/>
<path style="fill:#5900BF;" d="M301,227v-38.667h-90V227l-34.414,24.878c-13.138,9.497-20.919,24.723-20.919,40.934v138.854h200.667
	V292.812c0-16.211-7.781-31.437-20.919-40.934L301,227z"/>
<path style="fill:#3B0080;" d="M356.333,292.812c0-16.211-7.781-31.437-20.919-40.934L301,227v-38.667h-45.429v243.333h100.762
	V292.812z"/>
<path style="fill:#8D6EFF;" d="M287,163.667h-62v-86c0-17.121,13.879-31,31-31l0,0c17.121,0,31,13.879,31,31V163.667z"/>
<g>
	<path style="fill:#7600FF;" d="M287,77.667c0-17.121-13.879-31-31-31l0,0c-0.144,0-0.285,0.009-0.429,0.011v116.989H287V77.667z"/>
	<rect x="188" y="152.33" style="fill:#7600FF;" width="136" height="58"/>
</g>
<rect x="255.57" y="152.33" style="fill:#5900BF;" width="68.43" height="58"/>
<rect x="194.01" y="289" style="fill:#FF0098;" width="123.97" height="100.36"/>
<rect x="255.57" y="289" style="fill:#DF008B;" width="62.41" height="100.36"/>
<g>
</g>
<g>
</g>
<g>
</g>
<g>
</g>
<g>
</g>
<g>
</g>
<g>
</g>
<g>
</g>
<g>
</g>
<g>
</g>
<g>
</g>
<g>
</g>
<g>
</g>
<g>
</g>
<g>
</g>
</svg>
