<?xml version="1.0" encoding="iso-8859-1"?>
<!-- Generator: Adobe Illustrator 19.0.0, SVG Export Plug-In . SVG Version: 6.00 Build 0)  -->
<svg version="1.1" id="Capa_1" xmlns="http://www.w3.org/2000/svg" xmlns:xlink="http://www.w3.org/1999/xlink" x="0px" y="0px"
	 viewBox="0 0 512 512" style="enable-background:new 0 0 512 512;" xml:space="preserve">
<circle style="fill:#7600FF;" cx="256" cy="256" r="256"/>
<path style="fill:#5900BF;" d="M510.506,283.684l-137.19-137.19L117.142,394.858l116.126,116.126
	C240.759,511.643,248.337,512,256,512C388.03,512,496.701,412.047,510.506,283.684z"/>
<path style="fill:#FFE13C;" d="M117.142,394.858L117.142,394.858c-10.695-10.695-10.695-28.035,0-38.729l183.592-183.592
	l38.729,38.729L155.871,394.858C145.176,405.553,127.837,405.553,117.142,394.858z"/>
<path style="fill:#FFBA31;" d="M116.024,393.666c0.36,0.405,0.73,0.804,1.118,1.192c10.695,10.695,28.035,10.695,38.729,0
	l183.592-183.592l-20.519-20.52L116.024,393.666z"/>
<rect x="223.908" y="128.086" transform="matrix(-0.7071 -0.7071 0.7071 -0.7071 445.2975 539.6187)" style="fill:#FFFFFF;" width="220.998" height="98.999"/>
<rect x="316.829" y="166.575" transform="matrix(-0.7071 -0.7071 0.7071 -0.7071 483.7821 632.5375)" style="fill:#EDEDEF;" width="112.129" height="98.999"/>
<rect x="223.908" y="156.085" transform="matrix(-0.7071 -0.7071 0.7071 -0.7071 445.2975 539.6187)" style="fill:#D5D3E0;" width="220.998" height="43"/>
<rect x="316.829" y="194.574" transform="matrix(-0.7071 -0.7071 0.7071 -0.7071 483.7821 632.5375)" style="fill:#C2C1C9;" width="112.129" height="43"/>
<rect x="144.913" y="320.948" transform="matrix(0.7071 0.7071 -0.7071 0.7071 290.6678 -22.3388)" style="fill:#FFBA31;" width="54.771" height="37.5"/>
<rect x="166.902" y="330.059" transform="matrix(0.7071 0.7071 -0.7071 0.7071 299.7791 -26.1136)" style="fill:#FFA733;" width="29.02" height="37.5"/>
<g>
</g>
<g>
</g>
<g>
</g>
<g>
</g>
<g>
</g>
<g>
</g>
<g>
</g>
<g>
</g>
<g>
</g>
<g>
</g>
<g>
</g>
<g>
</g>
<g>
</g>
<g>
</g>
<g>
</g>
</svg>
