<?xml version="1.0" encoding="iso-8859-1"?>
<!-- Generator: Adobe Illustrator 19.0.0, SVG Export Plug-In . SVG Version: 6.00 Build 0)  -->
<svg version="1.1" id="Capa_1" xmlns="http://www.w3.org/2000/svg" xmlns:xlink="http://www.w3.org/1999/xlink" x="0px" y="0px"
	 viewBox="0 0 512 512" style="enable-background:new 0 0 512 512;" xml:space="preserve">
<circle style="fill:#7600FF;" cx="256" cy="256" r="256"/>
<path style="fill:#5900BF;" d="M512,256c0-10.156-0.61-20.167-1.761-30.014L398.39,114.136L139.44,417.784l93.138,93.139
	c7.715,0.7,15.524,1.077,23.421,1.077C397.385,512,512,397.385,512,256z"/>
<rect x="146.038" y="247.443" transform="matrix(-0.7071 -0.7071 0.7071 -0.7071 67.7346 696.0119)" style="fill:#FFE13C;" width="63.956" height="173.068"/>
<rect x="173.011" y="258.627" transform="matrix(0.7071 0.7071 -0.7071 0.7071 299.4772 -32.6796)" style="fill:#FFBA31;" width="32.35" height="173.068"/>
<path style="fill:#FFE13C;" d="M207.71,304.817L207.71,304.817c-31.924-31.924-31.924-83.682,0-115.606l64.468-64.468
	c31.924-31.924,83.682-31.924,115.606,0l0,0c31.924,31.924,31.924,83.682,0,115.606l-64.468,64.468
	C291.392,336.741,239.633,336.741,207.71,304.817z"/>
<g>
	<path style="fill:#FFBA31;" d="M387.784,124.743L387.784,124.743c-0.176-0.176-0.361-0.338-0.539-0.512L207.198,304.279
		c0.174,0.177,0.336,0.362,0.512,0.539l0,0c31.924,31.924,83.682,31.924,115.606,0l64.468-64.468
		C419.707,208.426,419.707,156.667,387.784,124.743z"/>
	<path style="fill:#FFBA31;" d="M265.513,343.715c-24.774,0-49.549-9.43-68.41-28.291c-37.721-37.721-37.721-99.098,0-136.82
		l64.468-64.468c37.721-37.721,99.099-37.721,136.819,0c37.721,37.721,37.721,99.098,0,136.82l-64.468,64.468
		C315.062,334.284,290.287,343.715,265.513,343.715z M329.98,115.832c-17.092,0-34.185,6.506-47.197,19.518l-64.468,64.468
		c-26.024,26.024-26.024,68.369,0,94.393s68.369,26.024,94.394,0l64.468-64.468c26.024-26.024,26.024-68.369,0-94.393
		C364.165,122.338,347.073,115.832,329.98,115.832z"/>
</g>
<path style="fill:#FFA733;" d="M398.39,114.136c-0.176-0.176-0.361-0.337-0.539-0.512l-21.213,21.213
	c0.178,0.174,0.363,0.336,0.539,0.512c26.024,26.024,26.024,68.369,0,94.393l-64.468,64.468c-26.024,26.024-68.369,26.024-94.394,0
	c-0.176-0.176-0.338-0.361-0.512-0.538l-21.213,21.213c0.175,0.177,0.336,0.362,0.512,0.539
	c18.86,18.861,43.635,28.291,68.41,28.291s49.549-9.43,68.41-28.291l64.468-64.468C436.111,213.235,436.111,151.858,398.39,114.136z
	"/>
<g>
	
		<rect x="332.436" y="183.55" transform="matrix(-0.7071 -0.7071 0.7071 -0.7071 446.6544 572.1006)" style="fill:#7600FF;" width="18.755" height="19.991"/>
	
		<rect x="271.846" y="244.123" transform="matrix(-0.7071 -0.7071 0.7071 -0.7071 300.3905 632.662)" style="fill:#7600FF;" width="18.755" height="19.991"/>
	
		<rect x="302.143" y="213.833" transform="matrix(-0.7071 -0.7071 0.7071 -0.7071 373.5275 602.3763)" style="fill:#7600FF;" width="18.755" height="19.991"/>
</g>
<g>
	
		<rect x="309.206" y="160.304" transform="matrix(-0.7071 -0.7071 0.7071 -0.7071 423.4358 515.9911)" style="fill:#8D6EFF;" width="18.755" height="19.991"/>
	
		<rect x="248.616" y="220.891" transform="matrix(-0.7071 -0.7071 0.7071 -0.7071 277.1618 576.5766)" style="fill:#8D6EFF;" width="18.755" height="19.991"/>
	
		<rect x="278.913" y="190.601" transform="matrix(-0.7071 -0.7071 0.7071 -0.7071 350.2988 546.291)" style="fill:#8D6EFF;" width="18.755" height="19.991"/>
</g>
<g>
	
		<rect x="352.815" y="209.431" transform="matrix(-0.7071 -0.7071 0.7071 -0.7071 472.5366 634.5839)" style="fill:#7600FF;" width="29.76" height="19.991"/>
	
		<rect x="292.243" y="270.011" transform="matrix(-0.7071 -0.7071 0.7071 -0.7071 326.2967 695.1694)" style="fill:#7600FF;" width="29.76" height="19.991"/>
	
		<rect x="322.529" y="239.721" transform="matrix(-0.7071 -0.7071 0.7071 -0.7071 399.4166 664.8766)" style="fill:#7600FF;" width="29.76" height="19.991"/>
</g>
<g>
	
		<rect x="278.158" y="134.774" transform="matrix(-0.7071 -0.7071 0.7071 -0.7071 397.8795 454.3458)" style="fill:#8D6EFF;" width="29.76" height="19.991"/>
	
		<rect x="217.576" y="195.354" transform="matrix(-0.7071 -0.7071 0.7071 -0.7071 251.6226 514.9241)" style="fill:#8D6EFF;" width="29.76" height="19.991"/>
	
		<rect x="247.872" y="165.064" transform="matrix(-0.7071 -0.7071 0.7071 -0.7071 324.7596 484.6385)" style="fill:#8D6EFF;" width="29.76" height="19.991"/>
</g>
<g>
	
		<rect x="353.63" y="156.841" transform="matrix(0.7071 -0.7071 0.7071 0.7071 -10.0373 309.4411)" style="fill:#7600FF;" width="29.76" height="19.992"/>
	
		<rect x="241.64" y="268.834" transform="matrix(0.7071 -0.7071 0.7071 0.7071 -122.0299 263.0544)" style="fill:#7600FF;" width="29.76" height="19.992"/>
</g>
<g>
	
		<rect x="330.402" y="133.611" transform="matrix(0.7071 -0.7071 0.7071 0.7071 -0.4146 286.2124)" style="fill:#8D6EFF;" width="29.76" height="19.992"/>
	
		<rect x="218.412" y="245.604" transform="matrix(0.7071 -0.7071 0.7071 0.7071 -112.4072 239.8257)" style="fill:#8D6EFF;" width="29.76" height="19.992"/>
</g>
<g>
</g>
<g>
</g>
<g>
</g>
<g>
</g>
<g>
</g>
<g>
</g>
<g>
</g>
<g>
</g>
<g>
</g>
<g>
</g>
<g>
</g>
<g>
</g>
<g>
</g>
<g>
</g>
<g>
</g>
</svg>
