<?xml version="1.0" encoding="iso-8859-1"?>
<!-- Generator: Adobe Illustrator 19.0.0, SVG Export Plug-In . SVG Version: 6.00 Build 0)  -->
<svg version="1.1" id="Capa_1" xmlns="http://www.w3.org/2000/svg" xmlns:xlink="http://www.w3.org/1999/xlink" x="0px" y="0px"
	 viewBox="0 0 512 512" style="enable-background:new 0 0 512 512;" xml:space="preserve">
<circle style="fill:#FF0098;" cx="256" cy="256" r="256"/>
<path style="fill:#DF008B;" d="M510.821,280.571L293.75,63.5L150.448,84.847L270.47,204.869l-90.137,234.817l72.271,72.271
	c1.132,0.015,2.26,0.043,3.395,0.043C389.095,512,498.453,410.427,510.821,280.571z"/>
<path style="fill:#FFFFFF;" d="M289.937,148.975v-29.161h-67.874v29.161l-25.954,18.762c-9.908,7.162-15.776,18.645-15.776,30.871
	v241.078h151.333V198.608c0-12.226-5.868-23.708-15.776-30.871L289.937,148.975z"/>
<path style="fill:#E4F2F6;" d="M331.667,198.608c0-12.226-5.868-23.708-15.776-30.871l-25.954-18.762v-29.161h-34.365v319.871
	h76.095V198.608z"/>
<rect x="243.83" y="106.33" style="fill:#D5D3E0;" width="24.333" height="284.67"/>
<rect x="255.57" y="106.33" style="fill:#BDBDC6;" width="12.595" height="284.67"/>
<rect x="205.33" y="279.75" style="fill:#FFE13C;" width="101.33" height="131.25"/>
<rect x="255.57" y="279.75" style="fill:#FFBA31;" width="51.09" height="131.25"/>
<path style="fill:#5900BF;" d="M150.448,84.847C171.832,70.916,196.804,63.5,222.326,63.5h71.424V124h-75.5V84.53h-23.315
	c-3.374,0-6.721,0.604-9.882,1.783L166,93.417L150.448,84.847z"/>
<rect x="255.57" y="63.5" style="fill:#3B0080;" width="38.18" height="60.5"/>
<g>
</g>
<g>
</g>
<g>
</g>
<g>
</g>
<g>
</g>
<g>
</g>
<g>
</g>
<g>
</g>
<g>
</g>
<g>
</g>
<g>
</g>
<g>
</g>
<g>
</g>
<g>
</g>
<g>
</g>
</svg>
