<?xml version="1.0" encoding="iso-8859-1"?>
<!-- Generator: Adobe Illustrator 19.0.0, SVG Export Plug-In . SVG Version: 6.00 Build 0)  -->
<svg version="1.1" id="Capa_1" xmlns="http://www.w3.org/2000/svg" xmlns:xlink="http://www.w3.org/1999/xlink" x="0px" y="0px"
	 viewBox="0 0 512 512" style="enable-background:new 0 0 512 512;" xml:space="preserve">
<circle style="fill:#00FFCE;" cx="256" cy="256" r="256"/>
<path style="fill:#05E0B6;" d="M512,256c0-4.771-0.142-9.509-0.399-14.216L399.044,129.227l-281.11,60.129l193.75,193.75
	l-50.133,35.956l55.888,55.888l-28.057,34.885l0,0C414.993,493.475,512,386.07,512,256z"/>
<path style="fill:#5900BF;" d="M289.382,509.834c9.598-1.25,19.025-3.041,28.258-5.323l17.903-107.595l-26.635-4.432
	L289.382,509.834z"/>
<path style="fill:#3B0080;" d="M304.001,507.488c4.59-0.873,9.138-1.864,13.639-2.977l17.903-107.595l-12.426-2.067L304.001,507.488
	z"/>
<polygon style="fill:#7600FF;" points="366.056,419.062 261.551,419.062 294.539,279.174 399.044,279.174 "/>
<g>
	<polygon style="fill:#5900BF;" points="399.044,279.174 342.748,279.174 319.008,419.062 366.056,419.062 	"/>
	<path style="fill:#5900BF;" d="M333.197,102.019L333.197,102.019L333.197,102.019c-2.213-0.133-215.263,0-215.263,0v87.337
		l101.7,46.867c11.217,48.659,54.809,84.94,106.875,84.94c60.573,0,109.677-49.104,109.677-109.677
		C436.186,153.16,390.654,105.476,333.197,102.019z"/>
</g>
<path style="fill:#3B0080;" d="M235.379,272.495c19.683,29.343,53.142,48.668,91.13,48.668c60.573,0,109.677-49.104,109.677-109.677
	c0-22.901-7.022-44.159-19.026-61.746L235.379,272.495z"/>
<circle style="fill:#FFE13C;" cx="326.51" cy="211.49" r="64.09"/>
<path style="fill:#FFBA31;" d="M273.148,246.99c11.489,17.233,31.096,28.591,53.361,28.591c35.398,0,64.094-28.696,64.094-64.094
	c0-13.448-4.15-25.923-11.227-36.231L273.148,246.99z"/>
<polygon style="fill:#5900BF;" points="273.75,367.329 308.131,367.329 315.359,342.604 279.581,342.604 "/>
<g>
</g>
<g>
</g>
<g>
</g>
<g>
</g>
<g>
</g>
<g>
</g>
<g>
</g>
<g>
</g>
<g>
</g>
<g>
</g>
<g>
</g>
<g>
</g>
<g>
</g>
<g>
</g>
<g>
</g>
</svg>
