<?xml version="1.0" encoding="iso-8859-1"?>
<!-- Generator: Adobe Illustrator 19.0.0, SVG Export Plug-In . SVG Version: 6.00 Build 0)  -->
<svg version="1.1" id="Capa_1" xmlns="http://www.w3.org/2000/svg" xmlns:xlink="http://www.w3.org/1999/xlink" x="0px" y="0px"
	 viewBox="0 0 512 512" style="enable-background:new 0 0 512 512;" xml:space="preserve">
<circle style="fill:#7600FF;" cx="256" cy="256" r="256"/>
<path style="fill:#5900BF;" d="M512,256c0-15.344-1.354-30.37-3.941-44.971L365.594,68.564l-73.174,197.57l76.842,75.485
	l-252.955,5.952l-20.55,56.105l101.555,101.555C216.159,509.652,235.805,512,256,512C397.385,512,512,397.385,512,256z"/>
<polygon style="fill:#FFFFFF;" points="292.42,68.564 292.42,266.134 329.007,266.134 329.007,425.372 365.594,425.372 
	365.594,68.564 "/>
<polygon style="fill:#E0E0E2;" points="328.786,68.564 328.786,266.134 329.007,266.134 329.007,425.372 365.594,425.372 
	365.594,68.564 "/>
<path style="fill:#FF0098;" d="M95.757,331.046v72.631h296.498v-72.631L95.757,331.046L95.757,331.046z M134.08,385.134
	c-9.816,0-17.773-7.957-17.773-17.773s7.957-17.773,17.773-17.773s17.773,7.957,17.773,17.773S143.896,385.134,134.08,385.134z"/>
<path style="fill:#DF008B;" d="M151.785,366.024c0.033,0.443,0.068,0.886,0.068,1.337c0,9.816-7.957,17.773-17.773,17.773
	s-17.773-7.957-17.773-17.773c0-0.452,0.034-0.894,0.068-1.337H95.757v37.652h296.499v-37.652H151.785z"/>
<g>
</g>
<g>
</g>
<g>
</g>
<g>
</g>
<g>
</g>
<g>
</g>
<g>
</g>
<g>
</g>
<g>
</g>
<g>
</g>
<g>
</g>
<g>
</g>
<g>
</g>
<g>
</g>
<g>
</g>
</svg>
