<?xml version="1.0" encoding="iso-8859-1"?>
<!-- Generator: Adobe Illustrator 19.0.0, SVG Export Plug-In . SVG Version: 6.00 Build 0)  -->
<svg version="1.1" id="Capa_1" xmlns="http://www.w3.org/2000/svg" xmlns:xlink="http://www.w3.org/1999/xlink" x="0px" y="0px"
	 viewBox="0 0 512 512" style="enable-background:new 0 0 512 512;" xml:space="preserve">
<circle style="fill:#00FFCE;" cx="256" cy="256" r="256"/>
<path style="fill:#05E0B6;" d="M510.33,285.224L293.106,68L158.183,99.889l37.065,37.065l-32.023,21.147l59.049,59.05
	l-40.798,232.293l62.257,62.257C247.799,511.893,251.887,512,256,512C387.501,512,495.824,412.844,510.33,285.224z"/>
<path style="fill:#FFFFFF;" d="M332.776,449.445H181.477V252.756c0-41.78,33.869-75.649,75.649-75.649l0,0
	c41.78,0,75.649,33.869,75.649,75.649L332.776,449.445L332.776,449.445z"/>
<path style="fill:#E4F2F6;" d="M332.776,252.756c0-41.78-33.869-75.649-75.649-75.649l0,0c-0.521,0-1.036,0.029-1.555,0.039v272.298
	h77.204L332.776,252.756L332.776,252.756z"/>
<rect x="244.63" y="180.8" style="fill:#D5D3E0;" width="25" height="197.79"/>
<rect x="255.57" y="180.8" style="fill:#C5C4CC;" width="14.05" height="197.79"/>
<rect x="204.91" y="318.07" style="fill:#8D6EFF;" width="104.43" height="104.43"/>
<rect x="255.57" y="318.07" style="fill:#7600FF;" width="53.771" height="104.43"/>
<g>
	
		<rect x="199.457" y="105.794" transform="matrix(-0.2364 -0.9717 0.9717 -0.2364 125.6042 366.8604)" style="fill:#8D6EFF;" width="15.001" height="56.562"/>
	
		<rect x="178.123" y="90.115" transform="matrix(-0.9083 -0.4183 0.4183 -0.9083 300.9373 320.7455)" style="fill:#8D6EFF;" width="15" height="74.549"/>
</g>
<path style="fill:#5900BF;" d="M227.711,159.025v-41.146l-53.615-17.898V68l119.01,0l23.613,26.275
	c-24.633,9.196-30.545,29.492-30.545,29.492v35.258H227.711z"/>
<path style="fill:#3B0080;" d="M293.106,68h-37.535v91.025h30.602v-35.258c0,0,5.912-20.295,30.545-29.491L293.106,68z"/>
<rect x="224.28" y="151.2" style="fill:#7600FF;" width="65.69" height="33.378"/>
<rect x="255.57" y="151.2" style="fill:#5900BF;" width="34.398" height="33.378"/>
<rect x="158.18" y="68" style="fill:#8D6EFF;" width="15.914" height="31.889"/>
<g>
</g>
<g>
</g>
<g>
</g>
<g>
</g>
<g>
</g>
<g>
</g>
<g>
</g>
<g>
</g>
<g>
</g>
<g>
</g>
<g>
</g>
<g>
</g>
<g>
</g>
<g>
</g>
<g>
</g>
</svg>
