<?xml version="1.0" encoding="iso-8859-1"?>
<!-- Generator: Adobe Illustrator 19.0.0, SVG Export Plug-In . SVG Version: 6.00 Build 0)  -->
<svg version="1.1" id="Capa_1" xmlns="http://www.w3.org/2000/svg" xmlns:xlink="http://www.w3.org/1999/xlink" x="0px" y="0px"
	 viewBox="0 0 512 512" style="enable-background:new 0 0 512 512;" xml:space="preserve">
<circle style="fill:#FF0098;" cx="256" cy="256" r="256"/>
<path style="fill:#DF008B;" d="M512,256c0-2.903-0.066-5.79-0.162-8.669l-98.251-98.251l-308.666,258l99.774,99.775
	C221.271,510.226,238.428,512,256,512C397.385,512,512,397.385,512,256z"/>
<rect x="271.622" y="110.432" transform="matrix(-0.7071 -0.7071 0.7071 -0.7071 497.7033 517.9188)" style="fill:#5900BF;" width="168.988" height="90.899"/>
<rect x="343.423" y="140.181" transform="matrix(-0.7071 -0.7071 0.7071 -0.7071 527.431 589.7302)" style="fill:#3B0080;" width="84.859" height="90.899"/>
<path style="fill:#99FFEB;" d="M403.765,246.8L265.2,108.235l-22.072,22.072c-6.526,6.526-7.953,16.581-3.5,24.665l5.016,9.106
	c12.782,23.206,9.718,51.923-7.672,71.909l-132.684,148.3c-5.871,6.562-5.593,16.567,0.633,22.793l0,0
	c6.226,6.226,16.231,6.504,22.793,0.633l148.298-132.684c19.987-17.39,48.704-20.454,71.909-7.672l9.106,5.016
	c8.084,4.453,18.139,3.026,24.665-3.5L403.765,246.8z"/>
<path style="fill:#00FFCE;" d="M104.671,406.805c0.086,0.09,0.161,0.186,0.249,0.275l0,0c6.226,6.226,16.231,6.504,22.793,0.633
	l148.298-132.684c19.987-17.39,48.704-20.454,71.909-7.672l9.106,5.016c8.084,4.453,18.139,3.026,24.665-3.5l22.072-22.073
	l-69.544-69.544L104.671,406.805z"/>
<g>
</g>
<g>
</g>
<g>
</g>
<g>
</g>
<g>
</g>
<g>
</g>
<g>
</g>
<g>
</g>
<g>
</g>
<g>
</g>
<g>
</g>
<g>
</g>
<g>
</g>
<g>
</g>
<g>
</g>
</svg>
