<?xml version="1.0" encoding="iso-8859-1"?>
<!-- Generator: Adobe Illustrator 19.0.0, SVG Export Plug-In . SVG Version: 6.00 Build 0)  -->
<svg version="1.1" id="Capa_1" xmlns="http://www.w3.org/2000/svg" xmlns:xlink="http://www.w3.org/1999/xlink" x="0px" y="0px"
	 viewBox="0 0 512 512" style="enable-background:new 0 0 512 512;" xml:space="preserve">
<circle style="fill:#00FFCE;" cx="256" cy="256" r="256"/>
<g>
	<path style="fill:#05E0B6;" d="M511.766,266.557L336.384,91.174l-151.531,204.45v32.392l165.875,165.875
		C442.12,457.467,507.572,369.908,511.766,266.557z"/>
	<path style="fill:#05E0B6;" d="M136.768,320.754l23.268,114.615l75.847,75.847C242.521,511.732,249.229,512,256,512
		c22.084,0,43.516-2.797,63.959-8.055L136.768,320.754z"/>
</g>
<path style="fill:#FF0098;" d="M438.246,430.23c0-28.752-20.225-63.537-48.392-69.303l-74.927-15.339
	c-9.133-1.87-15.691-9.906-15.691-19.229V272.87h-86.471v53.489c0,9.323-6.558,17.359-15.691,19.229l-74.927,15.339
	c-28.168,5.767-48.392,40.552-48.392,69.303v5.534c2.68,2.717,5.423,5.372,8.221,7.968c3.261,2.855,6.58,5.787,9.957,8.772
	C136.362,489.639,193.566,512,256,512s119.638-22.361,164.068-59.496c3.376-2.986,6.696-5.917,9.957-8.772
	c2.799-2.596,5.541-5.251,8.221-7.968V430.23z"/>
<path style="fill:#DF008B;" d="M389.853,360.927l-74.927-15.339c-9.133-1.87-15.691-9.906-15.691-19.229V272.87h-43.664v239.125
	c0.143,0,0.285,0.005,0.429,0.005c62.434,0,119.638-22.361,164.068-59.496c3.376-2.986,6.696-5.917,9.957-8.772
	c2.799-2.596,5.541-5.251,8.221-7.968v-5.534C438.246,401.478,418.021,366.693,389.853,360.927z"/>
<path style="fill:#FFFFFF;" d="M256,326.504L256,326.504c-53.802,0-97.417-43.615-97.417-97.416v-43.783
	c0-53.802,43.615-97.416,97.416-97.416l0,0c53.802,0,97.416,43.615,97.416,97.416v43.783
	C353.417,282.889,309.802,326.504,256,326.504z"/>
<path style="fill:#E4F2F6;" d="M256,87.888L256,87.888c-0.143,0-0.286,0.005-0.429,0.005v238.605
	c0.143,0.001,0.285,0.006,0.428,0.006l0,0c53.802,0,97.416-43.615,97.416-97.417v-43.783C353.417,131.503,309.802,87.888,256,87.888
	z"/>
<path style="fill:#5900BF;" d="M136.768,482.576c15.191,8.011,31.28,14.544,48.085,19.396V375.29l-48.085-54.536V482.576z"/>
<path style="fill:#7600FF;" d="M375.232,179.232C375.232,113.382,321.85,60,256,60l0,0c-65.85,0-119.232,53.382-119.232,119.232
	v1.329v52.258v40.662l48.085,54.535V217.54h152.868V393h37.511V179.232z"/>
<path style="fill:#5900BF;" d="M256,60L256,60c-0.143,0-0.286,0.005-0.429,0.005V217.54h82.149V393h37.511V179.232
	C375.232,113.382,321.85,60,256,60z"/>
<g>
</g>
<g>
</g>
<g>
</g>
<g>
</g>
<g>
</g>
<g>
</g>
<g>
</g>
<g>
</g>
<g>
</g>
<g>
</g>
<g>
</g>
<g>
</g>
<g>
</g>
<g>
</g>
<g>
</g>
</svg>
