<?xml version="1.0" encoding="iso-8859-1"?>
<!-- Generator: Adobe Illustrator 19.0.0, SVG Export Plug-In . SVG Version: 6.00 Build 0)  -->
<svg version="1.1" id="Capa_1" xmlns="http://www.w3.org/2000/svg" xmlns:xlink="http://www.w3.org/1999/xlink" x="0px" y="0px"
	 viewBox="0 0 512 512" style="enable-background:new 0 0 512 512;" xml:space="preserve">
<circle style="fill:#FFE13C;" cx="256" cy="256" r="256"/>
<path style="fill:#FFBA31;" d="M512,256c0-33.206-6.324-64.935-17.831-94.05l-75.336-75.336L344.047,396l65.133,65.133
	C471.599,414.448,512,339.942,512,256z"/>
<rect x="105.67" y="99.11" style="fill:#FFFFFF;" width="300.67" height="249.32"/>
<rect x="255.57" y="99.11" style="fill:#E4F2F6;" width="150.76" height="249.32"/>
<path style="fill:#DF008B;" d="M418.833,360.931H93.167V86.614h325.666L418.833,360.931L418.833,360.931z M118.167,335.931h275.666
	V111.614H118.167V335.931z"/>
<polygon style="fill:#C90085;" points="418.833,86.614 255.571,86.614 255.571,111.614 393.833,111.614 393.833,335.931 
	255.571,335.931 255.571,360.931 418.833,360.931 "/>
<path style="fill:#05E0B6;" d="M20.71,357C59.892,448.158,150.485,512,256,512s196.108-63.842,235.29-155H20.71z"/>
<path style="fill:#06B795;" d="M255.571,357v154.996c0.143,0,0.286,0.004,0.429,0.004c105.515,0,196.108-63.842,235.29-155H255.571z
	"/>
<path style="fill:#5900BF;" d="M218.667,509.282C230.855,511.063,243.317,512,256,512c12.683,0,25.145-0.938,37.333-2.718V390.333
	h-74.667L218.667,509.282L218.667,509.282z"/>
<path style="fill:#3B0080;" d="M255.571,390.333v121.663c0.143,0,0.286,0.004,0.429,0.004c12.683,0,25.145-0.938,37.333-2.718
	V390.333H255.571z"/>
<rect x="211.36" y="147.27" style="fill:#7600FF;" width="89.28" height="53.855"/>
<rect x="255.57" y="147.27" style="fill:#5900BF;" width="45.07" height="53.854"/>
<g>
	<rect x="139.92" y="354.28" style="fill:#3B0080;" width="232.16" height="58.25"/>
	<rect x="139.92" y="354.28" style="fill:#3B0080;" width="115.65" height="58.25"/>
</g>
<rect x="255.57" y="354.28" style="fill:#2C0168;" width="116.51" height="58.25"/>
<rect x="173.42" y="216.18" style="fill:#7600FF;" width="165.17" height="196.35"/>
<g>
	<rect x="255.57" y="216.18" style="fill:#5900BF;" width="83.01" height="196.35"/>
	<rect x="243.67" y="169.67" style="fill:#5900BF;" width="24.667" height="96.67"/>
</g>
<rect x="255.57" y="169.67" style="fill:#3B0080;" width="12.762" height="96.67"/>
<rect x="124.04" y="284.33" style="fill:#7600FF;" width="31.667" height="128.19"/>
<rect x="356.29" y="284.33" style="fill:#5900BF;" width="31.667" height="128.19"/>
<g>
</g>
<g>
</g>
<g>
</g>
<g>
</g>
<g>
</g>
<g>
</g>
<g>
</g>
<g>
</g>
<g>
</g>
<g>
</g>
<g>
</g>
<g>
</g>
<g>
</g>
<g>
</g>
<g>
</g>
</svg>
