<?xml version="1.0" encoding="iso-8859-1"?>
<!-- Generator: Adobe Illustrator 19.0.0, SVG Export Plug-In . SVG Version: 6.00 Build 0)  -->
<svg version="1.1" id="Capa_1" xmlns="http://www.w3.org/2000/svg" xmlns:xlink="http://www.w3.org/1999/xlink" x="0px" y="0px"
	 viewBox="0 0 512 512" style="enable-background:new 0 0 512 512;" xml:space="preserve">
<circle style="fill:#7600FF;" cx="256" cy="256" r="256"/>
<path style="fill:#5900BF;" d="M508.25,299.814L326.047,117.61l14.346,269.283l71.874,71.874
	C461.944,420.426,497.137,364.246,508.25,299.814z"/>
<path style="fill:#DF008B;" d="M438.246,430.23c0-28.752-20.225-63.537-48.392-69.303l-74.927-15.339
	c-9.133-1.87-15.691-9.906-15.691-19.229V272.87h-86.471v53.489c0,9.323-6.558,17.359-15.691,19.229l-74.927,15.339
	c-28.168,5.767-48.392,40.552-48.392,69.303v5.534c2.68,2.717,5.423,5.372,8.221,7.968c3.261,2.855,6.58,5.787,9.957,8.772
	C136.362,489.639,193.566,512,256,512s119.638-22.361,164.068-59.496c3.376-2.986,6.696-5.917,9.957-8.772
	c2.799-2.596,5.541-5.251,8.221-7.968V430.23z"/>
<path style="fill:#C90085;" d="M389.853,360.927l-74.927-15.339c-9.133-1.87-15.691-9.906-15.691-19.229V272.87h-43.664v239.125
	c0.143,0,0.285,0.005,0.429,0.005c62.434,0,119.638-22.361,164.067-59.496c3.376-2.986,6.696-5.917,9.957-8.772
	c2.799-2.596,5.541-5.251,8.221-7.968v-5.534C438.246,401.478,418.021,366.693,389.853,360.927z"/>
<path style="fill:#FFFFFF;" d="M256,326.504L256,326.504c-53.802,0-97.417-43.615-97.417-97.416v-43.783
	c0-53.802,43.615-97.416,97.416-97.416l0,0c53.802,0,97.416,43.615,97.416,97.416v43.783
	C353.417,282.889,309.802,326.504,256,326.504z"/>
<path style="fill:#E4F2F6;" d="M256,87.888L256,87.888c-0.143,0-0.285,0.005-0.429,0.005v238.605
	c0.143,0.001,0.285,0.006,0.429,0.006l0,0c53.802,0,97.417-43.615,97.417-97.417v-43.783C353.417,131.503,309.802,87.888,256,87.888
	z"/>
<path style="fill:#FFF566;" d="M256,447L256,447c-53.802,0-97.417-43.615-97.417-97.416V229.087h194.833v120.496
	C353.417,403.385,309.802,447,256,447z"/>
<path style="fill:#FFE13C;" d="M255.571,229.087v217.907c0.143,0,0.285,0.005,0.429,0.005l0,0c53.802,0,97.417-43.615,97.417-97.417
	V229.087H255.571z"/>
<path style="fill:#FFBA31;" d="M163.219,228.298c5.39,20.202,26.384,34.959,48.793,34.959c10.546,0,22.935-3.225,30.868-8.489
	c7.495-4.974,12.692-13.248,12.692-22.907c0-14.924-12.099-27.023-27.023-27.023c-9.721,0-18.24,5.135-23.001,12.839
	c-0.107,0.199-0.231,0.386-0.345,0.581c-2.389,4.076-6.262,7.169-10.888,8.527c-1.679,0.493-3.452,0.769-5.291,0.769
	c-10.36,0-18.759-8.399-18.759-18.759c0-1.121,0.116-2.213,0.305-3.28C163.216,207.391,161.022,220.065,163.219,228.298z"/>
<path style="fill:#FFA733;" d="M347.924,228.298c-5.39,20.202-26.384,34.959-48.793,34.959c-10.546,0-22.935-3.225-30.868-8.489
	c-7.495-4.974-12.692-13.248-12.692-22.907c0-14.924,12.099-27.023,27.023-27.023c9.721,0,18.24,5.135,23.001,12.839
	c0.107,0.199,0.231,0.386,0.345,0.581c2.389,4.076,6.262,7.169,10.888,8.527c1.679,0.493,3.452,0.769,5.29,0.769
	c10.36,0,18.759-8.399,18.759-18.759c0-1.121-0.116-2.213-0.305-3.28C347.926,207.391,350.121,220.065,347.924,228.298z"/>
<g>
</g>
<g>
</g>
<g>
</g>
<g>
</g>
<g>
</g>
<g>
</g>
<g>
</g>
<g>
</g>
<g>
</g>
<g>
</g>
<g>
</g>
<g>
</g>
<g>
</g>
<g>
</g>
<g>
</g>
</svg>
