<?xml version="1.0" encoding="iso-8859-1"?>
<!-- Generator: Adobe Illustrator 19.0.0, SVG Export Plug-In . SVG Version: 6.00 Build 0)  -->
<svg version="1.1" id="Capa_1" xmlns="http://www.w3.org/2000/svg" xmlns:xlink="http://www.w3.org/1999/xlink" x="0px" y="0px"
	 viewBox="0 0 512 512" style="enable-background:new 0 0 512 512;" xml:space="preserve">
<circle style="fill:#7600FF;" cx="256" cy="256" r="256"/>
<path style="fill:#5900BF;" d="M512,256c0-18.403-1.958-36.346-5.648-53.648L404.5,100.5l-130.202,31.798L242.5,100.5l-135,32
	l85.549,85.549L107.5,411.5l94.852,94.852C219.654,510.042,237.597,512,256,512C397.385,512,512,397.385,512,256z"/>
<rect x="118" y="121" style="fill:#FFE13C;" width="114" height="272.84"/>
<g>
	<rect x="174.62" y="121" style="fill:#FFBA31;" width="57.38" height="272.84"/>
	<rect x="107.5" y="100.5" style="fill:#FFBA31;" width="135" height="32"/>
</g>
<rect x="174.62" y="100.5" style="fill:#FFA733;" width="67.881" height="32"/>
<rect x="107.5" y="379.5" style="fill:#FFBA31;" width="135" height="32"/>
<rect x="174.62" y="379.5" style="fill:#FFA733;" width="67.881" height="32"/>
<g>
	<rect x="136" y="151.5" style="fill:#FFBA31;" width="18" height="50.33"/>
	<rect x="136" y="232.26" style="fill:#FFBA31;" width="18" height="50.33"/>
	<rect x="136" y="313.02" style="fill:#FFBA31;" width="18" height="50.33"/>
	<rect x="166" y="151.5" style="fill:#FFBA31;" width="18" height="50.33"/>
</g>
<rect x="174.62" y="151.5" style="fill:#FFA733;" width="9.381" height="50.33"/>
<rect x="166" y="232.26" style="fill:#FFBA31;" width="18" height="50.33"/>
<rect x="174.62" y="232.26" style="fill:#FFA733;" width="9.381" height="50.33"/>
<rect x="166" y="313.02" style="fill:#FFBA31;" width="18" height="50.33"/>
<g>
	<rect x="174.62" y="313.02" style="fill:#FFA733;" width="9.381" height="50.33"/>
	<rect x="196" y="151.5" style="fill:#FFA733;" width="18" height="50.33"/>
	<rect x="196" y="232.26" style="fill:#FFA733;" width="18" height="50.33"/>
	<rect x="196" y="313.02" style="fill:#FFA733;" width="18" height="50.33"/>
</g>
<rect x="280" y="121" style="fill:#FFE13C;" width="114" height="272.84"/>
<g>
	<rect x="337.12" y="121" style="fill:#FFBA31;" width="56.881" height="272.84"/>
	<rect x="269.5" y="100.5" style="fill:#FFBA31;" width="135" height="32"/>
</g>
<rect x="337.12" y="100.5" style="fill:#FFA733;" width="67.38" height="32"/>
<rect x="269.5" y="379.5" style="fill:#FFBA31;" width="135" height="32"/>
<rect x="337.12" y="379.5" style="fill:#FFA733;" width="67.38" height="32"/>
<g>
	<rect x="298" y="151.5" style="fill:#FFBA31;" width="18" height="50.33"/>
	<rect x="298" y="232.26" style="fill:#FFBA31;" width="18" height="50.33"/>
	<rect x="298" y="313.02" style="fill:#FFBA31;" width="18" height="50.33"/>
	<rect x="328" y="151.5" style="fill:#FFBA31;" width="18" height="50.33"/>
</g>
<rect x="337.12" y="151.5" style="fill:#FFA733;" width="8.881" height="50.33"/>
<rect x="328" y="232.26" style="fill:#FFBA31;" width="18" height="50.33"/>
<rect x="337.12" y="232.26" style="fill:#FFA733;" width="8.881" height="50.33"/>
<rect x="328" y="313.02" style="fill:#FFBA31;" width="18" height="50.33"/>
<g>
	<rect x="337.12" y="313.02" style="fill:#FFA733;" width="8.881" height="50.33"/>
	<rect x="358" y="151.5" style="fill:#FFA733;" width="18" height="50.33"/>
	<rect x="358" y="232.26" style="fill:#FFA733;" width="18" height="50.33"/>
	<rect x="358" y="313.02" style="fill:#FFA733;" width="18" height="50.33"/>
</g>
<g>
</g>
<g>
</g>
<g>
</g>
<g>
</g>
<g>
</g>
<g>
</g>
<g>
</g>
<g>
</g>
<g>
</g>
<g>
</g>
<g>
</g>
<g>
</g>
<g>
</g>
<g>
</g>
<g>
</g>
</svg>
